<svg width="4000" height="2667" viewBox="0 0 4000 2667" fill="none" xmlns="http://www.w3.org/2000/svg">
<path d="M3606.47 2375.64H373.745L329.782 1452.55C324.613 1343.99 362.485 1237.84 435.014 1156.88C544.524 1034.67 714.836 828.479 861.201 675.146C985.132 545.306 1165.73 485.96 1342.48 517.226L3020.59 814.106C3300.05 859.626 3489.52 951.56 3619.67 1152.13C3683.23 1232.91 3712.69 1335.33 3702.25 1437.59L3606.47 2375.64Z" fill="#E3EEFE"/>
<mask id="mask0_16_3" style="mask-type:luminance" maskUnits="userSpaceOnUse" x="329" y="509" width="3376" height="1867">
<path d="M3606.47 2375.64H373.745L329.782 1452.55C324.613 1343.99 362.485 1237.84 435.014 1156.88C544.524 1034.67 714.836 828.479 861.201 675.146C985.132 545.306 1165.73 485.96 1342.48 517.226L3020.59 814.106C3300.05 859.626 3489.52 951.56 3619.67 1152.13C3683.23 1232.91 3712.69 1335.33 3702.25 1437.59L3606.47 2375.64Z" fill="white"/>
</mask>
<g mask="url(#mask0_16_3)">
<path d="M2037.43 2375.64H373.745L352 1919.04H695.749V1476.39H1274.1V1847.91H2037.43V2375.64Z" fill="#CCDFFE"/>
<path d="M1879.44 2375.23V1454.65H1656.61V2091.11H1541.49V2375.64H1879.44" fill="#A4C4FF"/>
<path d="M3606.47 2375.64H2899.87V1695.12H3138.99V1934.85H3651.47L3606.47 2375.64Z" fill="#CCDFFE"/>
</g>
<path d="M2178.59 2158.29H1762.64V1429.99H2178.59V2158.29Z" fill="#504F79"/>
<path d="M2355.6 2158.29H2178.59V1429.99H2355.6V2158.29Z" fill="#38385D"/>
<path d="M2135.49 1555.92H1805.72V1482.04H2135.49V1555.92Z" fill="#38385D"/>
<path d="M2077.37 1521.97C2077.89 1491.85 2122.71 1491.87 2123.21 1521.97C2122.71 1552.09 2077.89 1552.09 2077.37 1521.97Z" fill="#F85C3D"/>
<path d="M2014.51 1521.97C2015.01 1491.85 2059.83 1491.87 2060.33 1521.97C2059.83 1552.09 2015.01 1552.09 2014.51 1521.97Z" fill="#F85C3D"/>
<path d="M1872.67 1549.49H1858.33V1490.8H1872.67V1549.49Z" fill="#504F79"/>
<path d="M1851.12 1549.49H1836.79V1490.8H1851.12V1549.49Z" fill="#504F79"/>
<path d="M1829.57 1549.49H1815.24V1490.8H1829.57V1549.49Z" fill="#504F79"/>
<path d="M1936.87 1549.49H1922.53V1490.8H1936.87V1549.49Z" fill="#504F79"/>
<path d="M1915.32 1549.49H1900.99V1490.8H1915.32V1549.49Z" fill="#504F79"/>
<path d="M1893.77 1549.49H1879.44V1490.8H1893.77V1549.49Z" fill="#504F79"/>
<path d="M2001.08 1549.49H1986.73V1490.8H2001.08V1549.49Z" fill="#504F79"/>
<path d="M1979.53 1549.49H1965.19V1490.8H1979.53V1549.49Z" fill="#504F79"/>
<path d="M1957.99 1549.49H1943.64V1490.8H1957.99V1549.49Z" fill="#504F79"/>
<path d="M1829.57 1549.49H1815.24V1512.36H1829.57V1549.49Z" fill="#EECD76"/>
<path d="M1851.12 1549.49H1836.79V1523.69H1851.12V1549.49Z" fill="#EECD76"/>
<path d="M1872.67 1549.49H1858.33V1518.97H1872.67V1549.49Z" fill="#EECD76"/>
<path d="M1894.21 1549.49H1879.88V1523.69H1894.21V1549.49Z" fill="#EECD76"/>
<path d="M1915.32 1549.49H1900.99V1523.69H1915.32V1549.49Z" fill="#EECD76"/>
<path d="M1936.87 1549.49H1922.53V1508.12H1936.87V1549.49Z" fill="#EECD76"/>
<path d="M1957.99 1549.49H1943.64V1523.69H1957.99V1549.49Z" fill="#EECD76"/>
<path d="M1979.53 1549.49H1965.19V1523.69H1979.53V1549.49Z" fill="#EECD76"/>
<path d="M2001.08 1549.49H1986.73V1523.69H2001.08V1549.49Z" fill="#EECD76"/>
<path d="M2135.49 1665.17H1805.72V1591.29H2135.49V1665.17Z" fill="#38385D"/>
<path d="M2077.37 1631.23C2077.89 1601.11 2122.71 1601.12 2123.21 1631.23C2122.71 1661.35 2077.89 1661.35 2077.37 1631.23Z" fill="#F85C3D"/>
<path d="M2014.51 1631.23C2015.01 1601.11 2059.83 1601.12 2060.33 1631.23C2059.83 1661.35 2015.01 1661.35 2014.51 1631.23Z" fill="#F85C3D"/>
<path d="M1872.67 1658.75H1858.33V1600.05H1872.67V1658.75Z" fill="#504F79"/>
<path d="M1851.12 1658.75H1836.79V1600.05H1851.12V1658.75Z" fill="#504F79"/>
<path d="M1829.57 1658.75H1815.24V1600.05H1829.57V1658.75Z" fill="#504F79"/>
<path d="M1936.87 1658.75H1922.53V1600.05H1936.87V1658.75Z" fill="#504F79"/>
<path d="M1915.32 1658.75H1900.99V1600.05H1915.32V1658.75Z" fill="#504F79"/>
<path d="M1893.77 1658.75H1879.44V1600.05H1893.77V1658.75Z" fill="#504F79"/>
<path d="M2001.08 1658.75H1986.73V1600.05H2001.08V1658.75Z" fill="#504F79"/>
<path d="M1979.53 1658.75H1965.19V1600.05H1979.53V1658.75Z" fill="#504F79"/>
<path d="M1957.99 1658.75H1943.64V1600.05H1957.99V1658.75Z" fill="#504F79"/>
<path d="M1829.57 1658.75H1815.24V1648.11H1829.57V1658.75Z" fill="#EECD76"/>
<path d="M1851.12 1658.75H1836.79V1632.93H1851.12V1658.75Z" fill="#EECD76"/>
<path d="M1872.67 1658.75H1858.33V1628.23H1872.67V1658.75Z" fill="#EECD76"/>
<path d="M1893.77 1658.75H1879.44V1626.27H1893.77V1658.75Z" fill="#EECD76"/>
<path d="M1915.32 1658.75H1900.99V1632.93H1915.32V1658.75Z" fill="#EECD76"/>
<path d="M1936.87 1658.75H1922.53V1617.37H1936.87V1658.75Z" fill="#EECD76"/>
<path d="M1957.99 1658.75H1943.64V1632.93H1957.99V1658.75Z" fill="#EECD76"/>
<path d="M1979.53 1658.75H1965.19V1644.41H1979.53V1658.75Z" fill="#EECD76"/>
<path d="M2001.08 1658.75H1986.73V1632.93H2001.08V1658.75Z" fill="#EECD76"/>
<path d="M2135.49 1774.43H1805.72V1700.53H2135.49V1774.43Z" fill="#38385D"/>
<path d="M2077.37 1740.48C2077.89 1710.36 2122.71 1710.36 2123.21 1740.48C2122.71 1770.6 2077.89 1770.6 2077.37 1740.48Z" fill="#F85C3D"/>
<path d="M2014.51 1740.48C2015.01 1710.36 2059.83 1710.36 2060.33 1740.48C2059.83 1770.6 2015.01 1770.6 2014.51 1740.48Z" fill="#F85C3D"/>
<path d="M1872.67 1768H1858.33V1709.31H1872.67V1768Z" fill="#504F79"/>
<path d="M1851.12 1768H1836.79V1709.31H1851.12V1768Z" fill="#504F79"/>
<path d="M1829.57 1768H1815.24V1709.31H1829.57V1768Z" fill="#504F79"/>
<path d="M1936.87 1768H1922.53V1709.31H1936.87V1768Z" fill="#504F79"/>
<path d="M1915.32 1768H1900.99V1709.31H1915.32V1768Z" fill="#504F79"/>
<path d="M1893.77 1768H1879.44V1709.31H1893.77V1768Z" fill="#504F79"/>
<path d="M2001.08 1768H1986.73V1709.31H2001.08V1768Z" fill="#504F79"/>
<path d="M1979.53 1768H1965.19V1709.31H1979.53V1768Z" fill="#504F79"/>
<path d="M1957.99 1768H1943.64V1709.31H1957.99V1768Z" fill="#504F79"/>
<path d="M1829.57 1768H1815.24V1730.87H1829.57V1768Z" fill="#EECD76"/>
<path d="M1851.12 1768H1836.79V1742.19H1851.12V1768Z" fill="#EECD76"/>
<path d="M1872.67 1768H1858.33V1737.48H1872.67V1768Z" fill="#EECD76"/>
<path d="M1893.77 1768H1879.44V1718.04H1893.77V1768Z" fill="#504F79"/>
<path d="M1915.32 1768H1900.99V1742.19H1915.32V1768Z" fill="#EECD76"/>
<path d="M1936.87 1768H1922.53V1733.51H1936.87V1768Z" fill="#EECD76"/>
<path d="M1957.99 1768H1943.64V1742.19H1957.99V1768Z" fill="#EECD76"/>
<path d="M1979.53 1768H1965.19V1742.19H1979.53V1768Z" fill="#EECD76"/>
<path d="M2001.08 1768H1986.73V1742.19H2001.08V1768Z" fill="#EECD76"/>
<path d="M2135.49 1883.68H1805.72V1809.79H2135.49V1883.68Z" fill="#38385D"/>
<path d="M2077.37 1849.73C2077.89 1819.61 2122.71 1819.61 2123.21 1849.73C2122.71 1879.85 2077.89 1879.85 2077.37 1849.73Z" fill="#F85C3D"/>
<path d="M2014.51 1849.73C2015.01 1819.61 2059.83 1819.61 2060.33 1849.73C2059.83 1879.85 2015.01 1879.85 2014.51 1849.73Z" fill="#F85C3D"/>
<path d="M1872.67 1877.25H1858.33V1818.56H1872.67V1877.25Z" fill="#504F79"/>
<path d="M1851.12 1877.25H1836.79V1818.56H1851.12V1877.25Z" fill="#504F79"/>
<path d="M1829.57 1877.25H1815.24V1818.56H1829.57V1877.25Z" fill="#504F79"/>
<path d="M1936.87 1877.25H1922.53V1818.56H1936.87V1877.25Z" fill="#504F79"/>
<path d="M1915.32 1877.25H1900.99V1818.56H1915.32V1877.25Z" fill="#504F79"/>
<path d="M1893.77 1877.25H1879.44V1818.56H1893.77V1877.25Z" fill="#504F79"/>
<path d="M2001.08 1877.25H1986.73V1818.56H2001.08V1877.25Z" fill="#504F79"/>
<path d="M1979.53 1877.25H1965.19V1818.56H1979.53V1877.25Z" fill="#504F79"/>
<path d="M1957.99 1877.25H1943.64V1818.56H1957.99V1877.25Z" fill="#504F79"/>
<path d="M1829.57 1877.25H1815.24V1840.12H1829.57V1877.25Z" fill="#EECD76"/>
<path d="M1851.12 1877.25H1836.79V1864.35H1851.12V1877.25Z" fill="#EECD76"/>
<path d="M1872.67 1877.25H1858.33V1862.92H1872.67V1877.25Z" fill="#EECD76"/>
<path d="M1893.77 1877.25H1879.44V1851.44H1893.77V1877.25Z" fill="#EECD76"/>
<path d="M1915.32 1877.25H1900.99V1851.44H1915.32V1877.25Z" fill="#EECD76"/>
<path d="M1936.87 1877.25H1922.53V1835.88H1936.87V1877.25Z" fill="#EECD76"/>
<path d="M1957.99 1877.25H1943.64V1861.99H1957.99V1877.25Z" fill="#EECD76"/>
<path d="M1979.53 1877.25H1965.19V1851.44H1979.53V1877.25Z" fill="#EECD76"/>
<path d="M2001.08 1877.25H1986.73V1851.44H2001.08V1877.25Z" fill="#EECD76"/>
<path d="M2135.49 1992.93H1805.72V1919.04H2135.49V1992.93Z" fill="#38385D"/>
<path d="M2077.37 1958.99C2077.89 1928.87 2122.71 1928.87 2123.21 1958.99C2122.71 1989.11 2077.89 1989.11 2077.37 1958.99Z" fill="#F85C3D"/>
<path d="M2014.51 1958.99C2015.01 1928.87 2059.83 1928.87 2060.33 1958.99C2059.83 1989.11 2015.01 1989.11 2014.51 1958.99Z" fill="#504F79"/>
<path d="M1872.67 1986.51H1858.33V1927.81H1872.67V1986.51Z" fill="#504F79"/>
<path d="M1851.12 1986.51H1836.79V1927.81H1851.12V1986.51Z" fill="#504F79"/>
<path d="M1829.57 1986.51H1815.24V1927.81H1829.57V1986.51Z" fill="#504F79"/>
<path d="M1936.87 1986.51H1922.53V1927.81H1936.87V1986.51Z" fill="#504F79"/>
<path d="M1915.32 1986.51H1900.99V1927.81H1915.32V1986.51Z" fill="#504F79"/>
<path d="M1893.77 1986.51H1879.44V1927.81H1893.77V1986.51Z" fill="#504F79"/>
<path d="M2001.08 1986.51H1986.73V1927.81H2001.08V1986.51Z" fill="#504F79"/>
<path d="M1979.53 1986.51H1965.19V1927.81H1979.53V1986.51Z" fill="#504F79"/>
<path d="M1957.99 1986.51H1943.64V1927.81H1957.99V1986.51Z" fill="#504F79"/>
<path d="M1829.57 1986.51H1815.24V1949.37H1829.57V1986.51Z" fill="#EECD76"/>
<path d="M1851.12 1986.51H1836.79V1960.69H1851.12V1986.51Z" fill="#EECD76"/>
<path d="M1872.67 1986.51H1858.33V1955.99H1872.67V1986.51Z" fill="#EECD76"/>
<path d="M1894.21 1986.51H1879.88V1960.69H1894.21V1986.51Z" fill="#EECD76"/>
<path d="M1915.32 1986.51H1900.99V1960.69H1915.32V1986.51Z" fill="#EECD76"/>
<path d="M1936.87 1986.51H1922.53V1945.13H1936.87V1986.51Z" fill="#EECD76"/>
<path d="M1957.99 1986.51H1943.64V1960.69H1957.99V1986.51Z" fill="#EECD76"/>
<path d="M1979.53 1986.51H1965.19V1960.69H1979.53V1986.51Z" fill="#EECD76"/>
<path d="M2001.08 1986.51H1986.73V1960.69H2001.08V1986.51Z" fill="#EECD76"/>
<path d="M1897.25 2036.8H1805.72V2021.43H1897.25V2036.8Z" fill="#38385D"/>
<path d="M1897.25 2063.95H1805.72V2048.57H1897.25V2063.95Z" fill="#38385D"/>
<path d="M1897.25 2091.11H1805.72V2075.72H1897.25V2091.11Z" fill="#38385D"/>
<path d="M2016.37 2036.8H1924.84V2021.43H2016.37V2036.8Z" fill="#38385D"/>
<path d="M2016.37 2063.95H1924.84V2048.57H2016.37V2063.95Z" fill="#38385D"/>
<path d="M2016.37 2091.11H1924.84V2075.72H2016.37V2091.11Z" fill="#38385D"/>
<path d="M2135.49 2036.8H2043.96V2021.43H2135.49V2036.8Z" fill="#38385D"/>
<path d="M2135.49 2063.95H2043.96V2048.57H2135.49V2063.95Z" fill="#38385D"/>
<path d="M2135.49 2091.11H2043.96V2075.72H2135.49V2091.11Z" fill="#38385D"/>
<path d="M2312.85 1497.47H2221.32V1482.04H2312.85V1497.47Z" fill="#504F79"/>
<path d="M2312.85 1524.72H2221.32V1509.28H2312.85V1524.72Z" fill="#504F79"/>
<path d="M2312.85 1551.97H2221.32V1536.53H2312.85V1551.97Z" fill="#504F79"/>
<path d="M2312.85 1607.71H2221.32V1592.28H2312.85V1607.71Z" fill="#504F79"/>
<path d="M2312.85 1634.96H2221.32V1619.52H2312.85V1634.96Z" fill="#504F79"/>
<path d="M2312.85 1662.21H2221.32V1646.77H2312.85V1662.21Z" fill="#504F79"/>
<path d="M2312.85 1717.95H2221.32V1702.52H2312.85V1717.95Z" fill="#504F79"/>
<path d="M2312.85 1745.2H2221.32V1729.76H2312.85V1745.2Z" fill="#504F79"/>
<path d="M2312.85 1772.45H2221.32V1757.01H2312.85V1772.45Z" fill="#504F79"/>
<path d="M2312.85 1827.2H2221.32V1811.77H2312.85V1827.2Z" fill="#504F79"/>
<path d="M2312.85 1854.45H2221.32V1839.01H2312.85V1854.45Z" fill="#504F79"/>
<path d="M2312.85 1881.71H2221.32V1866.27H2312.85V1881.71Z" fill="#504F79"/>
<path d="M2312.85 1934.85H2221.32V1919.41H2312.85V1934.85Z" fill="#504F79"/>
<path d="M2312.85 1962.11H2221.32V1946.67H2312.85V1962.11Z" fill="#504F79"/>
<path d="M2312.85 1989.35H2221.32V1973.92H2312.85V1989.35Z" fill="#504F79"/>
<path d="M2811.36 2158.29H2395.41V1429.99H2811.36V2158.29Z" fill="#504F79"/>
<path d="M2988.39 2158.29H2811.36V1429.99H2988.39V2158.29Z" fill="#38385D"/>
<path d="M2768.28 1555.92H2438.51V1482.04H2768.28V1555.92Z" fill="#38385D"/>
<path d="M2710.16 1521.97C2710.68 1491.85 2755.49 1491.87 2756 1521.97C2755.48 1552.09 2710.67 1552.09 2710.16 1521.97Z" fill="#F85C3D"/>
<path d="M2647.28 1521.97C2647.8 1491.85 2692.61 1491.87 2693.12 1521.97C2692.61 1552.09 2647.8 1552.09 2647.28 1521.97Z" fill="#F85C3D"/>
<path d="M2505.45 1549.49H2491.11V1490.8H2505.45V1549.49Z" fill="#504F79"/>
<path d="M2483.91 1549.49H2469.56V1490.8H2483.91V1549.49Z" fill="#504F79"/>
<path d="M2462.36 1549.49H2448.01V1490.8H2462.36V1549.49Z" fill="#504F79"/>
<path d="M2569.65 1549.49H2555.32V1490.8H2569.65V1549.49Z" fill="#504F79"/>
<path d="M2548.11 1549.49H2533.77V1490.8H2548.11V1549.49Z" fill="#504F79"/>
<path d="M2526.56 1549.49H2512.23V1490.8H2526.56V1549.49Z" fill="#504F79"/>
<path d="M2633.85 1549.49H2619.52V1490.8H2633.85V1549.49Z" fill="#504F79"/>
<path d="M2612.31 1549.49H2597.97V1490.8H2612.31V1549.49Z" fill="#504F79"/>
<path d="M2590.76 1549.49H2576.43V1490.8H2590.76V1549.49Z" fill="#504F79"/>
<path d="M2462.36 1549.49H2448.01V1512.36H2462.36V1549.49Z" fill="#EECD76"/>
<path d="M2483.91 1549.49H2469.56V1523.69H2483.91V1549.49Z" fill="#EECD76"/>
<path d="M2505.45 1549.49H2491.11V1518.97H2505.45V1549.49Z" fill="#EECD76"/>
<path d="M2527 1549.49H2512.65V1523.69H2527V1549.49Z" fill="#EECD76"/>
<path d="M2548.11 1549.49H2533.77V1523.69H2548.11V1549.49Z" fill="#EECD76"/>
<path d="M2569.65 1549.49H2555.32V1508.12H2569.65V1549.49Z" fill="#EECD76"/>
<path d="M2590.76 1549.49H2576.43V1523.69H2590.76V1549.49Z" fill="#EECD76"/>
<path d="M2612.31 1549.49H2597.97V1523.69H2612.31V1549.49Z" fill="#EECD76"/>
<path d="M2633.85 1549.49H2619.52V1523.69H2633.85V1549.49Z" fill="#EECD76"/>
<path d="M2768.28 1665.17H2438.51V1591.29H2768.28V1665.17Z" fill="#38385D"/>
<path d="M2710.16 1631.23C2710.68 1601.11 2755.49 1601.12 2756 1631.23C2755.48 1661.35 2710.67 1661.35 2710.16 1631.23Z" fill="#F85C3D"/>
<path d="M2647.28 1631.23C2647.8 1601.11 2692.61 1601.12 2693.12 1631.23C2692.61 1661.35 2647.8 1661.35 2647.28 1631.23Z" fill="#F85C3D"/>
<path d="M2505.45 1658.75H2491.11V1600.05H2505.45V1658.75Z" fill="#504F79"/>
<path d="M2483.91 1658.75H2469.56V1600.05H2483.91V1658.75Z" fill="#504F79"/>
<path d="M2462.36 1658.75H2448.01V1600.05H2462.36V1658.75Z" fill="#504F79"/>
<path d="M2569.65 1658.75H2555.32V1600.05H2569.65V1658.75Z" fill="#504F79"/>
<path d="M2548.11 1658.75H2533.77V1600.05H2548.11V1658.75Z" fill="#504F79"/>
<path d="M2526.56 1658.75H2512.23V1600.05H2526.56V1658.75Z" fill="#504F79"/>
<path d="M2633.85 1658.75H2619.52V1600.05H2633.85V1658.75Z" fill="#504F79"/>
<path d="M2612.31 1658.75H2597.97V1600.05H2612.31V1658.75Z" fill="#504F79"/>
<path d="M2590.76 1658.75H2576.43V1600.05H2590.76V1658.75Z" fill="#504F79"/>
<path d="M2462.36 1658.75H2448.01V1648.11H2462.36V1658.75Z" fill="#EECD76"/>
<path d="M2483.91 1658.75H2469.56V1632.93H2483.91V1658.75Z" fill="#EECD76"/>
<path d="M2505.45 1658.75H2491.11V1628.23H2505.45V1658.75Z" fill="#EECD76"/>
<path d="M2526.56 1658.75H2512.23V1626.27H2526.56V1658.75Z" fill="#EECD76"/>
<path d="M2548.11 1658.75H2533.77V1632.93H2548.11V1658.75Z" fill="#EECD76"/>
<path d="M2569.65 1658.75H2555.32V1617.37H2569.65V1658.75Z" fill="#EECD76"/>
<path d="M2590.76 1658.75H2576.43V1632.93H2590.76V1658.75Z" fill="#EECD76"/>
<path d="M2612.31 1658.75H2597.97V1644.41H2612.31V1658.75Z" fill="#EECD76"/>
<path d="M2633.85 1658.75H2619.52V1632.93H2633.85V1658.75Z" fill="#EECD76"/>
<path d="M2768.28 1774.43H2438.51V1700.53H2768.28V1774.43Z" fill="#38385D"/>
<path d="M2710.16 1740.48C2710.68 1710.36 2755.49 1710.36 2756 1740.48C2755.48 1770.6 2710.67 1770.6 2710.16 1740.48Z" fill="#F85C3D"/>
<path d="M2647.28 1740.48C2647.8 1710.36 2692.61 1710.36 2693.12 1740.48C2692.61 1770.6 2647.8 1770.6 2647.28 1740.48Z" fill="#F85C3D"/>
<path d="M2505.45 1768H2491.11V1709.31H2505.45V1768Z" fill="#504F79"/>
<path d="M2483.91 1768H2469.56V1709.31H2483.91V1768Z" fill="#504F79"/>
<path d="M2462.36 1768H2448.01V1709.31H2462.36V1768Z" fill="#504F79"/>
<path d="M2569.65 1768H2555.32V1709.31H2569.65V1768Z" fill="#504F79"/>
<path d="M2548.11 1768H2533.77V1709.31H2548.11V1768Z" fill="#504F79"/>
<path d="M2526.56 1768H2512.23V1709.31H2526.56V1768Z" fill="#504F79"/>
<path d="M2633.85 1768H2619.52V1709.31H2633.85V1768Z" fill="#504F79"/>
<path d="M2612.31 1768H2597.97V1709.31H2612.31V1768Z" fill="#504F79"/>
<path d="M2590.76 1768H2576.43V1709.31H2590.76V1768Z" fill="#504F79"/>
<path d="M2462.36 1768H2448.01V1730.87H2462.36V1768Z" fill="#EECD76"/>
<path d="M2483.91 1768H2469.56V1742.19H2483.91V1768Z" fill="#EECD76"/>
<path d="M2505.45 1768H2491.11V1737.48H2505.45V1768Z" fill="#EECD76"/>
<path d="M2526.56 1768H2512.23V1718.04H2526.56V1768Z" fill="#504F79"/>
<path d="M2548.11 1768H2533.77V1742.19H2548.11V1768Z" fill="#EECD76"/>
<path d="M2569.65 1768H2555.32V1733.51H2569.65V1768Z" fill="#EECD76"/>
<path d="M2590.76 1768H2576.43V1742.19H2590.76V1768Z" fill="#EECD76"/>
<path d="M2612.31 1768H2597.97V1742.19H2612.31V1768Z" fill="#EECD76"/>
<path d="M2633.85 1768H2619.52V1742.19H2633.85V1768Z" fill="#EECD76"/>
<path d="M2768.28 1883.68H2438.51V1809.79H2768.28V1883.68Z" fill="#38385D"/>
<path d="M2710.16 1849.73C2710.68 1819.61 2755.49 1819.61 2756 1849.73C2755.48 1879.85 2710.67 1879.85 2710.16 1849.73Z" fill="#F85C3D"/>
<path d="M2647.28 1849.73C2647.8 1819.61 2692.61 1819.61 2693.12 1849.73C2692.61 1879.85 2647.8 1879.85 2647.28 1849.73Z" fill="#F85C3D"/>
<path d="M2505.45 1877.25H2491.11V1818.56H2505.45V1877.25Z" fill="#504F79"/>
<path d="M2483.91 1877.25H2469.56V1818.56H2483.91V1877.25Z" fill="#504F79"/>
<path d="M2462.36 1877.25H2448.01V1818.56H2462.36V1877.25Z" fill="#504F79"/>
<path d="M2569.65 1877.25H2555.32V1818.56H2569.65V1877.25Z" fill="#504F79"/>
<path d="M2548.11 1877.25H2533.77V1818.56H2548.11V1877.25Z" fill="#504F79"/>
<path d="M2526.56 1877.25H2512.23V1818.56H2526.56V1877.25Z" fill="#504F79"/>
<path d="M2633.85 1877.25H2619.52V1818.56H2633.85V1877.25Z" fill="#504F79"/>
<path d="M2612.31 1877.25H2597.97V1818.56H2612.31V1877.25Z" fill="#504F79"/>
<path d="M2590.76 1877.25H2576.43V1818.56H2590.76V1877.25Z" fill="#504F79"/>
<path d="M2462.36 1877.25H2448.01V1840.12H2462.36V1877.25Z" fill="#EECD76"/>
<path d="M2483.91 1877.25H2469.56V1864.35H2483.91V1877.25Z" fill="#EECD76"/>
<path d="M2505.45 1877.25H2491.11V1862.92H2505.45V1877.25Z" fill="#EECD76"/>
<path d="M2526.56 1877.25H2512.23V1851.44H2526.56V1877.25Z" fill="#EECD76"/>
<path d="M2548.11 1877.25H2533.77V1851.44H2548.11V1877.25Z" fill="#EECD76"/>
<path d="M2569.65 1877.25H2555.32V1835.88H2569.65V1877.25Z" fill="#EECD76"/>
<path d="M2590.76 1877.25H2576.43V1861.99H2590.76V1877.25Z" fill="#EECD76"/>
<path d="M2612.31 1877.25H2597.97V1851.44H2612.31V1877.25Z" fill="#EECD76"/>
<path d="M2633.85 1877.25H2619.52V1851.44H2633.85V1877.25Z" fill="#EECD76"/>
<path d="M2768.28 1992.93H2438.51V1919.04H2768.28V1992.93Z" fill="#38385D"/>
<path d="M2710.16 1958.99C2710.68 1928.87 2755.49 1928.87 2756 1958.99C2755.48 1989.11 2710.67 1989.11 2710.16 1958.99Z" fill="#F85C3D"/>
<path d="M2647.28 1958.99C2647.8 1928.87 2692.61 1928.87 2693.12 1958.99C2692.61 1989.11 2647.8 1989.11 2647.28 1958.99Z" fill="#504F79"/>
<path d="M2505.45 1986.51H2491.11V1927.81H2505.45V1986.51Z" fill="#504F79"/>
<path d="M2483.91 1986.51H2469.56V1927.81H2483.91V1986.51Z" fill="#504F79"/>
<path d="M2462.36 1986.51H2448.01V1927.81H2462.36V1986.51Z" fill="#504F79"/>
<path d="M2569.65 1986.51H2555.32V1927.81H2569.65V1986.51Z" fill="#504F79"/>
<path d="M2548.11 1986.51H2533.77V1927.81H2548.11V1986.51Z" fill="#504F79"/>
<path d="M2526.56 1986.51H2512.23V1927.81H2526.56V1986.51Z" fill="#504F79"/>
<path d="M2633.85 1986.51H2619.52V1927.81H2633.85V1986.51Z" fill="#504F79"/>
<path d="M2612.31 1986.51H2597.97V1927.81H2612.31V1986.51Z" fill="#504F79"/>
<path d="M2590.76 1986.51H2576.43V1927.81H2590.76V1986.51Z" fill="#504F79"/>
<path d="M2462.36 1986.51H2448.01V1949.37H2462.36V1986.51Z" fill="#EECD76"/>
<path d="M2483.91 1986.51H2469.56V1960.69H2483.91V1986.51Z" fill="#EECD76"/>
<path d="M2505.45 1986.51H2491.11V1955.99H2505.45V1986.51Z" fill="#EECD76"/>
<path d="M2527 1986.51H2512.65V1960.69H2527V1986.51Z" fill="#EECD76"/>
<path d="M2548.11 1986.51H2533.77V1960.69H2548.11V1986.51Z" fill="#EECD76"/>
<path d="M2569.65 1986.51H2555.32V1945.13H2569.65V1986.51Z" fill="#EECD76"/>
<path d="M2590.76 1986.51H2576.43V1960.69H2590.76V1986.51Z" fill="#EECD76"/>
<path d="M2612.31 1986.51H2597.97V1960.69H2612.31V1986.51Z" fill="#EECD76"/>
<path d="M2633.85 1986.51H2619.52V1960.69H2633.85V1986.51Z" fill="#EECD76"/>
<path d="M2530.04 2036.8H2438.51V2021.43H2530.04V2036.8Z" fill="#38385D"/>
<path d="M2530.04 2063.95H2438.51V2048.57H2530.04V2063.95Z" fill="#38385D"/>
<path d="M2530.04 2091.11H2438.51V2075.72H2530.04V2091.11Z" fill="#38385D"/>
<path d="M2649.16 2036.8H2557.63V2021.43H2649.16V2036.8Z" fill="#38385D"/>
<path d="M2649.16 2063.95H2557.63V2048.57H2649.16V2063.95Z" fill="#38385D"/>
<path d="M2649.16 2091.11H2557.63V2075.72H2649.16V2091.11Z" fill="#38385D"/>
<path d="M2768.28 2036.8H2676.75V2021.43H2768.28V2036.8Z" fill="#38385D"/>
<path d="M2768.28 2063.95H2676.75V2048.57H2768.28V2063.95Z" fill="#38385D"/>
<path d="M2768.28 2091.11H2676.75V2075.72H2768.28V2091.11Z" fill="#38385D"/>
<path d="M2945.64 1497.47H2854.11V1482.04H2945.64V1497.47Z" fill="#504F79"/>
<path d="M2945.64 1524.72H2854.11V1509.28H2945.64V1524.72Z" fill="#504F79"/>
<path d="M2945.64 1551.97H2854.11V1536.53H2945.64V1551.97Z" fill="#504F79"/>
<path d="M2945.64 1607.71H2854.11V1592.28H2945.64V1607.71Z" fill="#504F79"/>
<path d="M2945.64 1634.96H2854.11V1619.52H2945.64V1634.96Z" fill="#504F79"/>
<path d="M2945.64 1662.21H2854.11V1646.77H2945.64V1662.21Z" fill="#504F79"/>
<path d="M2945.64 1717.95H2854.11V1702.52H2945.64V1717.95Z" fill="#504F79"/>
<path d="M2945.64 1745.2H2854.11V1729.76H2945.64V1745.2Z" fill="#504F79"/>
<path d="M2945.64 1772.45H2854.11V1757.01H2945.64V1772.45Z" fill="#504F79"/>
<path d="M2945.64 1827.2H2854.11V1811.77H2945.64V1827.2Z" fill="#504F79"/>
<path d="M2945.64 1854.45H2854.11V1839.01H2945.64V1854.45Z" fill="#504F79"/>
<path d="M2945.64 1881.71H2854.11V1866.27H2945.64V1881.71Z" fill="#504F79"/>
<path d="M2945.64 1934.85H2854.11V1919.41H2945.64V1934.85Z" fill="#504F79"/>
<path d="M2945.64 1962.11H2854.11V1946.67H2945.64V1962.11Z" fill="#504F79"/>
<path d="M2945.64 1989.35H2854.11V1973.92H2945.64V1989.35Z" fill="#504F79"/>
<path d="M3097.45 2375.23H1673.64V2158.29H3097.45V2375.23Z" fill="#504F79"/>
<path d="M3097.45 2375.23H2722.51V2158.29H3097.45V2375.23Z" fill="#38385D"/>
<path d="M2722.51 2159.95H1762.64V2156.64H2722.51V2159.95Z" fill="#38385D"/>
<path d="M3278.31 1817.72C3274.24 1843.04 3215.85 2070.43 3220.79 2090.31L3227.51 2305.61H3292.07L3323.19 2097.64C3320.88 2090.87 3412.63 1829.84 3415.56 1817.72H3278.31Z" fill="#38385D"/>
<path d="M3473.47 1817.72L3509.59 2305.61H3445.03L3321.53 1817.72H3473.47Z" fill="#38385D"/>
<path d="M3361.84 1977L3339.51 1888.73C3339.51 1888.73 3312.99 2012.24 3337.57 2048.96L3361.84 1977Z" fill="#1A1A35"/>
<path d="M3167.91 1530.69C3133.12 1535.39 2988.04 1499.55 2952.04 1492.08L2945.93 1524.04C2987.39 1540.19 3122.6 1596.99 3165.56 1599.35L3167.91 1530.69Z" fill="#FFB6A6"/>
<mask id="mask1_16_3" style="mask-type:luminance" maskUnits="userSpaceOnUse" x="2945" y="1492" width="223" height="108">
<path d="M3167.91 1530.69C3133.12 1535.39 2988.04 1499.55 2952.04 1492.08L2945.93 1524.04C2987.39 1540.19 3122.6 1596.99 3165.56 1599.35L3167.91 1530.69Z" fill="white"/>
</mask>
<g mask="url(#mask1_16_3)">
<path d="M3157.37 1524.69L3137.48 1607.71L3184.24 1608.32L3188.72 1524.72L3157.37 1524.69Z" fill="#FF8370"/>
</g>
<path d="M3528.85 1628.01L3410.27 1536.48C3409.16 1535.57 3408.03 1534.72 3406.88 1533.87V1533.88C3389.03 1519.69 3363.89 1516.12 3340.92 1517.09C3321.09 1523.15 3191.36 1522.92 3168.19 1522.44L3164.99 1615.72L3255.17 1625.68L3274.48 1817.72H3479.36L3451.23 1670.65L3528.85 1628.01Z" fill="#F85C3D"/>
<mask id="mask2_16_3" style="mask-type:luminance" maskUnits="userSpaceOnUse" x="3164" y="1516" width="365" height="302">
<path d="M3528.85 1628.01L3410.27 1536.48C3409.16 1535.57 3408.03 1534.72 3406.88 1533.87V1533.88C3389.03 1519.69 3363.89 1516.12 3340.92 1517.09C3321.09 1523.15 3191.36 1522.92 3168.19 1522.44L3164.99 1615.72L3255.17 1625.68L3274.47 1817.72H3479.36L3451.23 1670.65L3528.85 1628.01Z" fill="white"/>
</mask>
<g mask="url(#mask2_16_3)">
<path d="M3281.92 1517.09C3299.69 1574.19 3387.85 1589.91 3410.88 1524.52L3350.43 1511.63L3281.92 1517.09Z" fill="#FFB6A6"/>
</g>
<mask id="mask3_16_3" style="mask-type:luminance" maskUnits="userSpaceOnUse" x="3164" y="1516" width="365" height="302">
<path d="M3528.85 1628.01L3410.27 1536.48C3409.16 1535.57 3408.03 1534.72 3406.88 1533.87V1533.88C3389.03 1519.69 3363.89 1516.12 3340.92 1517.09C3321.09 1523.15 3191.36 1522.92 3168.19 1522.44L3164.99 1615.72L3255.17 1625.68L3274.47 1817.72H3479.36L3451.23 1670.65L3528.85 1628.01Z" fill="white"/>
</mask>
<g mask="url(#mask3_16_3)">
<mask id="mask4_16_3" style="mask-type:luminance" maskUnits="userSpaceOnUse" x="3281" y="1511" width="130" height="57">
<path d="M3281.92 1517.09C3299.69 1574.19 3387.85 1589.91 3410.88 1524.52L3350.43 1511.63L3281.92 1517.09Z" fill="white"/>
</mask>
<g mask="url(#mask4_16_3)">
<path d="M3290.84 1517.09C3290.84 1517.09 3304.83 1565.03 3364 1569.11C3331.85 1576.05 3282.28 1558.28 3272.19 1518.4L3290.84 1517.09Z" fill="#FF8370"/>
</g>
</g>
<mask id="mask5_16_3" style="mask-type:luminance" maskUnits="userSpaceOnUse" x="3164" y="1516" width="365" height="302">
<path d="M3528.85 1628.01L3410.27 1536.48C3409.16 1535.57 3408.03 1534.72 3406.88 1533.87V1533.88C3389.03 1519.69 3363.89 1516.12 3340.92 1517.09C3321.09 1523.15 3191.36 1522.92 3168.19 1522.44L3164.99 1615.72L3255.17 1625.68L3274.47 1817.72H3479.36L3451.23 1670.65L3528.85 1628.01Z" fill="white"/>
</mask>
<g mask="url(#mask5_16_3)">
<path d="M3165.56 1599.35C3165.56 1599.35 3220.93 1610.47 3293.23 1599.35C3357.68 1754.69 3312.57 1729.71 3476.32 1780.27C3476.32 1780.27 3487.93 1826.69 3483.19 1825.11C3478.43 1823.53 3253.05 1824.05 3253.05 1824.05L3243.11 1629.39L3158.68 1614.61L3165.56 1599.35Z" fill="#DF4930"/>
</g>
<path d="M3523.52 1739.53H3313L3336.03 1612.15C3337 1606.81 3341.64 1602.93 3347.07 1602.93H3541.56C3545.03 1602.93 3547.64 1606.07 3547.03 1609.47L3523.52 1739.53Z" fill="#38385D"/>
<path d="M3517.67 1754C3514.95 1751.4 3189.95 1759.04 3190.55 1751.29C3191.36 1748.87 3188.49 1739.32 3193.25 1739.53H3523.52C3522.32 1742.88 3523.49 1754.39 3517.67 1754Z" fill="#504F79"/>
<path d="M3448.47 1679.85C3439.39 1705.91 3414.76 1697.43 3423.63 1671.32C3432.69 1645.27 3457.33 1653.73 3448.47 1679.85Z" fill="#504F79"/>
<path d="M3222.99 1884.81H2933.69C2924.23 1884.81 2916.53 1877.12 2916.53 1867.65V1489.44C2926.81 1476.6 2917.13 1868.27 2920.35 1867.65C2920.35 1875.01 2926.33 1881 2933.69 1881H3222.99C3230.35 1881 3236.33 1875.01 3236.33 1867.65V1747.84C3236.33 1746.79 3237.19 1745.93 3238.24 1745.93C3239.29 1745.93 3240.15 1746.79 3240.15 1747.84V1867.65C3240.15 1877.12 3232.45 1884.81 3222.99 1884.81Z" fill="#F85C3D"/>
<path d="M3446.69 1754.12C3465.28 1737.92 3465.29 1737.36 3494.09 1738.84C3502.16 1739.71 3488.43 1756.96 3484.93 1758.4C3480.93 1761.08 3475.79 1764 3472.59 1763.77C3466.73 1763.36 3430.11 1754.12 3431.73 1754.12C3433.36 1754.12 3446.69 1754.12 3446.69 1754.12Z" fill="#FFB6A6"/>
<path d="M3279.11 1405.41L3257.8 1470.72C3253.96 1482.49 3261.71 1494.88 3273.99 1496.57L3307.8 1501.24L3314.69 1547.37L3367.09 1544.27L3333.07 1405.41H3279.11Z" fill="#FFB6A6"/>
<mask id="mask6_16_3" style="mask-type:luminance" maskUnits="userSpaceOnUse" x="3256" y="1405" width="112" height="143">
<path d="M3279.11 1405.41L3257.8 1470.72C3253.96 1482.49 3261.71 1494.88 3273.99 1496.57L3307.8 1501.24L3314.69 1547.37L3367.09 1544.27L3333.07 1405.41H3279.11Z" fill="white"/>
</mask>
<g mask="url(#mask6_16_3)">
<path d="M3256.81 1486.79C3256.81 1486.79 3283.23 1493.64 3313.13 1483.89C3313.13 1483.89 3306.6 1495.25 3308.44 1504.36C3308.44 1504.36 3260.96 1503.2 3256.81 1486.79Z" fill="#FF8370"/>
<path d="M3262.01 1427.07C3263.12 1427.6 3283.44 1448.65 3337.77 1431.65L3275.68 1398.4L3262.01 1427.07Z" fill="#FF8370"/>
</g>
<path d="M3243.25 2305.61V2326.43C3243.25 2326.43 3249.88 2346.81 3264.63 2346.81C3279.36 2346.81 3279.97 2342.27 3279.97 2342.27L3283.32 2305.61H3243.25Z" fill="#FFB6A6"/>
<mask id="mask7_16_3" style="mask-type:luminance" maskUnits="userSpaceOnUse" x="3243" y="2305" width="41" height="42">
<path d="M3243.25 2305.61V2326.43C3243.25 2326.43 3249.88 2346.81 3264.63 2346.81C3279.36 2346.81 3279.97 2342.27 3279.97 2342.27L3283.32 2305.61H3243.25Z" fill="white"/>
</mask>
<g mask="url(#mask7_16_3)">
<path d="M3285.93 2324.67C3285.93 2324.67 3248.72 2319.59 3238.83 2310.4L3238.36 2301.59L3286.63 2302.64L3285.93 2324.67Z" fill="#FF8370"/>
</g>
<path d="M3279.97 2342.27C3279.97 2342.27 3249.39 2350.11 3243.04 2324.67L3183.12 2353.08C3174.53 2357.16 3169.43 2366.17 3170.35 2375.64L3275.23 2374.23C3290.07 2373.85 3279.96 2350.16 3279.97 2342.27Z" fill="#38385C"/>
<path d="M3455.75 2305.61C3462.36 2315.56 3468.79 2346.68 3487.15 2346.81C3501.89 2346.81 3502.51 2342.27 3502.51 2342.27L3495.8 2305.61H3455.75Z" fill="#FFB6A6"/>
<mask id="mask8_16_3" style="mask-type:luminance" maskUnits="userSpaceOnUse" x="3455" y="2305" width="48" height="42">
<path d="M3455.75 2305.61C3462.36 2315.56 3468.79 2346.68 3487.15 2346.81C3501.89 2346.81 3502.51 2342.27 3502.51 2342.27L3495.8 2305.61H3455.75Z" fill="white"/>
</mask>
<g mask="url(#mask8_16_3)">
<path d="M3499.87 2324.67C3499.87 2324.67 3462.65 2319.59 3452.76 2310.4L3452.29 2301.59L3500.56 2302.64L3499.87 2324.67Z" fill="#FF8370"/>
</g>
<path d="M3502.51 2342.27C3502.51 2342.27 3471.92 2350.11 3465.57 2324.67L3405.65 2353.08C3397.07 2357.16 3391.95 2366.17 3392.88 2375.64L3497.75 2374.23C3512.6 2373.85 3502.49 2350.16 3502.51 2342.27Z" fill="#38385C"/>
<path d="M2957.07 1493.19C2951.13 1489.6 2938.52 1471.81 2930.11 1476.16C2929.84 1477.23 2889.95 1490.09 2893.51 1492.73C2895.25 1496.25 2898.93 1498.63 2902.92 1497.73L2926.03 1492.95L2930.65 1521.81L2950.45 1524.69L2957.07 1493.19Z" fill="#FFB6A6"/>
<path d="M2902.33 1494.36L2913.76 1524.69L2932.44 1521.07L2926.96 1489.44L2902.33 1494.36Z" fill="#FF8370"/>
<path d="M3278.8 1412.27C3278.8 1412.27 3319.05 1426.21 3319.93 1426.21C3317.43 1434.89 3310.75 1448.63 3322.43 1457.32L3327.93 1443.64C3327.93 1443.64 3345 1461.41 3327.93 1470.29L3353.65 1492.08C3373.96 1467.41 3368.88 1446.23 3366.96 1417.15C3366.21 1397.77 3348.11 1386.69 3331.33 1381.69L3266.87 1362.04C3266.87 1362.04 3245.83 1404.72 3278.8 1412.27Z" fill="#38385D"/>
<path d="M2321.45 1628.95C2280.63 1637.57 2243.55 1593.52 2259.19 1554.77L2413.35 1131.08C2426.29 1091.41 2482.97 1081.33 2508.73 1114.25L2798.64 1459.59C2826.52 1490.63 2806.91 1544.75 2765.52 1550.59L2321.45 1628.95Z" fill="#739BFD"/>
<path d="M2440.61 1141C2242.87 1737.53 2140.03 1612.68 2760.48 1522.03C2780.88 1518.43 2789.72 1494.09 2776.41 1478.24L2486.51 1132.91C2473.19 1117.04 2447.69 1121.55 2440.61 1141Z" fill="#A4C4FF"/>
<path d="M2436.4 1255.91L2529.81 1239.43L2551.17 1427.24L2481.45 1439.55L2436.4 1255.91ZM2497.87 1469.52C2523.84 1432.55 2579.76 1471.48 2554.41 1508.55C2527.71 1544.76 2472.75 1507.55 2497.87 1469.52Z" fill="white"/>
<path d="M2704.17 1001.84H2234.96C2247.69 974.813 2272.03 960.093 2301.89 960.907C2312.51 870.773 2438.49 849.213 2478.52 930.627C2507.04 918.04 2544.68 935.227 2553.83 965.027C2600.29 910.827 2685.48 934.227 2704.17 1001.84Z" fill="white"/>
<path d="M2167.76 859.507H1853.07C1852.75 832.134 1881.64 820.44 1905.2 819.707C1909.45 819.387 1913.97 819.12 1917.41 816.613C1963.41 730.88 2090.97 744.013 2110.97 841.547C2119.89 829.12 2136.97 823.24 2151.64 827.56C2166.31 831.867 2166.99 844.24 2167.76 859.507Z" fill="white"/>
<path d="M2982.27 1196.19C2980.04 1326.55 2786.11 1326.52 2783.89 1196.17C2786.12 1065.81 2980.07 1065.84 2982.27 1196.19Z" fill="#A4C4FF"/>
<path d="M2822.45 1222.85H2850.55V1179.35L2822.45 1222.85ZM2913.05 1222.85H2936.57L2913.05 1180.25V1222.85ZM2911.2 1285.6C2910.19 1285.6 2909.36 1284.77 2909.36 1283.75V1226.55H2854.24V1283.75C2854.24 1284.77 2853.41 1285.6 2852.39 1285.6C2851.37 1285.6 2850.55 1284.77 2850.55 1283.75V1226.55H2819.07C2817.64 1226.59 2816.69 1224.87 2817.51 1223.69L2850.84 1172.07C2851.75 1170.55 2854.31 1171.27 2854.24 1173.07V1222.85H2909.36V1173.07C2909.31 1171.23 2911.97 1170.51 2912.83 1172.17L2941.32 1223.8C2941.64 1224.37 2941.63 1225.08 2941.29 1225.64C2941.83 1227.55 2913.75 1226.13 2913.05 1226.55V1283.75C2913.05 1284.77 2912.23 1285.6 2911.2 1285.6Z" fill="#E3EEFE"/>
<path d="M2904.03 1342.41C2843.69 1342.48 2836.72 1349.57 2839.33 1283.44H2926.84C2925.6 1303.05 2934.69 1341.88 2904.03 1342.41Z" fill="#38385D"/>
<path d="M2926.84 1299.89H2839.33V1291.68H2926.84V1299.89Z" fill="#504F79"/>
<path d="M2926.84 1314.19H2839.33V1305.96H2926.84V1314.19Z" fill="#504F79"/>
<path d="M2845.01 1090.79L2838.73 1073.39C2841.27 1072.48 2843.85 1071.63 2846.43 1070.88L2851.61 1088.63C2849.4 1089.28 2847.19 1090 2845.01 1090.79ZM2923.25 1091.57C2921.09 1090.75 2918.89 1089.97 2916.68 1089.28L2922.23 1071.64C2924.8 1072.44 2927.37 1073.35 2929.89 1074.31L2923.25 1091.57ZM2804.25 1116.57L2791.24 1103.43C2793.15 1101.55 2795.13 1099.69 2797.16 1097.92L2809.35 1111.84C2807.6 1113.36 2805.89 1114.95 2804.25 1116.57ZM2963.52 1118.2C2961.91 1116.55 2960.24 1114.92 2958.53 1113.36L2970.99 1099.69C2972.97 1101.51 2974.93 1103.4 2976.8 1105.32L2963.52 1118.2ZM2778.04 1157.12L2760.71 1150.67C2761.64 1148.13 2762.68 1145.61 2763.77 1143.16L2780.67 1150.68C2779.73 1152.79 2778.84 1154.95 2778.04 1157.12ZM2988.88 1159.21C2988.12 1157.05 2987.28 1154.87 2986.39 1152.75L3003.44 1145.57C3004.48 1148.04 3005.45 1150.59 3006.35 1153.12L2988.88 1159.21ZM2752.93 1206.35C2752.72 1203.67 2752.6 1200.95 2752.56 1198.27L2771.05 1197.97C2771.09 1200.28 2771.2 1202.63 2771.37 1204.92L2752.93 1206.35ZM3013 1208.93L2994.59 1207.15C2994.81 1204.85 2994.97 1202.52 2995.05 1200.21L3013.53 1200.85C3013.44 1203.55 3013.27 1206.27 3013 1208.93ZM2769.28 1260.16C2767.96 1257.81 2766.69 1255.4 2765.52 1252.99L2782.17 1244.92C2783.17 1247 2784.25 1249.07 2785.39 1251.08L2769.28 1260.16ZM2995.59 1262.41L2979.65 1253.01C2980.83 1251.03 2981.95 1248.99 2983 1246.93L2999.48 1255.32C2998.27 1257.71 2996.95 1260.11 2995.59 1262.41Z" fill="#A4C4FF"/>
<path d="M1079.28 1604.24L949.423 1547.49L949.421 1547.51C938.129 1542.2 925.556 1539.23 912.343 1539.23C871.956 1536.43 827.209 1541.53 805.012 1578.79L717.664 1691.61L784.627 1739.21L777.939 1861.55H1014.7L1003.11 1680.53L1045.73 1696.31L1079.28 1604.24Z" fill="#F85C3D"/>
<mask id="mask9_16_3" style="mask-type:luminance" maskUnits="userSpaceOnUse" x="717" y="1538" width="363" height="324">
<path d="M1079.28 1604.24L949.423 1547.49L949.421 1547.51C938.129 1542.2 925.556 1539.23 912.343 1539.23C871.957 1536.43 827.209 1541.53 805.013 1578.79L717.664 1691.61L784.627 1739.21L777.939 1861.55H1014.7L1003.11 1680.53L1045.73 1696.31L1079.28 1604.24Z" fill="white"/>
</mask>
<g mask="url(#mask9_16_3)">
<path d="M831.004 1543.75C858.552 1571.76 930.227 1590.13 958.076 1541.33L902.879 1527.75L865.339 1530.11L831.004 1543.75Z" fill="#FFB6A6"/>
<path d="M1061.91 1679.16L980.374 1617.72L937.285 1859.41L1040.7 1855.21L1019.16 1706.91L1061.91 1723.28V1679.16Z" fill="#DF4930"/>
<path d="M756.539 1726.47L816.189 1611.97C816.189 1611.97 824.179 1871.84 822.58 1871.84C820.983 1871.84 761.332 1868.64 761.332 1868.64L756.539 1726.47Z" fill="#DF4930"/>
</g>
<path d="M1059.49 2052.13L989.892 1861.45L997.596 1861.44L969.271 1546.79L944.405 1541.33L944.805 1643.13L847.833 1639.93L843.216 1542.43L818.223 1549.11L794.255 1861.55L651.973 2092.92L571.044 2309.76H644.803L755.295 2142.04L898.561 1985.92L940.272 2065.77L890.911 2309.76H976.041C977.731 2294.81 1076.11 2060.77 1059.49 2052.13Z" fill="#38385C"/>
<mask id="mask10_16_3" style="mask-type:luminance" maskUnits="userSpaceOnUse" x="571" y="1541" width="491" height="769">
<path d="M1059.49 2052.13L989.892 1861.45L997.595 1861.44L969.269 1546.79L944.405 1541.33L944.805 1643.12L847.833 1639.93L843.216 1542.43L818.223 1549.11L794.255 1861.55L651.973 2092.92L571.044 2309.76H644.803L755.296 2142.04L898.561 1985.92L940.271 2065.77L890.911 2309.76H976.041C977.731 2294.81 1076.11 2060.77 1059.49 2052.13Z" fill="white"/>
</mask>
<g mask="url(#mask10_16_3)">
<path d="M794.255 1861.55C794.255 1861.55 862.377 1997.59 1042.3 1989.69L1014.7 1861.55L787.728 1815.72L794.255 1861.55Z" fill="#1A1A35"/>
<path d="M840.729 1662.05C840.928 1675.75 819.423 1675.75 819.624 1662.05C819.424 1648.37 840.931 1648.37 840.729 1662.05Z" fill="#1A1A35"/>
<path d="M961.983 1663.71C962.181 1677.4 940.676 1677.4 940.877 1663.71C940.677 1650.01 962.184 1650.01 961.983 1663.71Z" fill="#1A1A35"/>
<path d="M817.93 1788.01L965.297 1796.8L956.958 1701.65L829.243 1699.11L817.93 1788.01ZM968.124 1799.55C966.43 1799.44 816.744 1790.52 815.027 1790.41L826.981 1696.48L959.322 1699.12L968.124 1799.55Z" fill="#1A1A35"/>
</g>
<path d="M1499.89 1495.67L917.997 1295.6C879.684 1282.43 859.306 1240.69 872.482 1202.39L1065.84 640.2C1079.02 601.893 1120.76 581.52 1159.07 594.693L1740.97 794.773C1779.28 807.946 1799.67 849.666 1786.49 887.973L1593.12 1450.16C1579.95 1488.47 1538.21 1508.84 1499.89 1495.67Z" fill="#3875FF"/>
<mask id="mask11_16_3" style="mask-type:luminance" maskUnits="userSpaceOnUse" x="868" y="590" width="923" height="910">
<path d="M1499.89 1495.67L917.997 1295.6C879.684 1282.43 859.306 1240.69 872.482 1202.39L1065.84 640.2C1079.02 601.893 1120.76 581.52 1159.07 594.693L1740.97 794.773C1779.28 807.946 1799.67 849.666 1786.49 887.973L1593.12 1450.16C1579.95 1488.47 1538.21 1508.84 1499.89 1495.67Z" fill="white"/>
</mask>
<g mask="url(#mask11_16_3)">
<path d="M1555.96 1532.04L974.061 1331.96C935.749 1318.79 915.371 1277.05 928.546 1238.75L1121.91 676.56C1135.08 638.253 1176.82 617.88 1215.13 631.054L1797.04 831.133C1835.35 844.307 1855.73 886.04 1842.55 924.347L1649.19 1486.53C1636.01 1524.84 1594.28 1545.21 1555.96 1532.04Z" fill="#A4C4FF"/>
</g>
<path d="M1624.37 1264.59C1689.6 977 1682.27 1006.83 1403.6 1001.84L1380.4 1069.32L1590.68 1274.92C1602.04 1286.03 1621.2 1280.16 1624.37 1264.59ZM1413.53 1105.72L1346.04 1082.52L1140.4 1292.76C1129.29 1304.12 1135.17 1323.28 1150.74 1326.45C1438.19 1391.6 1408.6 1384.51 1413.53 1105.72ZM1332.84 1048.16L1122.56 842.56C1111.2 831.453 1092.04 837.32 1088.86 852.893C1023.7 1140.29 1030.8 1110.71 1309.64 1115.64L1332.84 1048.16ZM1299.71 1011.76L1367.2 1034.97L1572.84 824.72C1583.95 813.36 1578.08 794.2 1562.51 791.026C1275.05 725.88 1304.64 732.973 1299.71 1011.76Z" fill="#739BFD"/>
<mask id="mask12_16_3" style="mask-type:luminance" maskUnits="userSpaceOnUse" x="1055" y="757" width="604" height="604">
<path d="M1624.37 1264.59C1689.6 977 1682.27 1006.83 1403.6 1001.84L1380.4 1069.32L1590.68 1274.92C1602.04 1286.03 1621.2 1280.16 1624.37 1264.59ZM1413.53 1105.72L1346.04 1082.52L1140.4 1292.76C1129.29 1304.12 1135.17 1323.28 1150.74 1326.45C1438.19 1391.6 1408.6 1384.51 1413.53 1105.72ZM1332.84 1048.16L1122.56 842.56C1111.2 831.453 1092.04 837.32 1088.86 852.893C1023.7 1140.29 1030.8 1110.71 1309.64 1115.64L1332.84 1048.16ZM1299.71 1011.76L1367.2 1034.97L1572.84 824.72C1583.95 813.36 1578.08 794.2 1562.51 791.026C1275.05 725.88 1304.64 732.973 1299.71 1011.76Z" fill="white"/>
</mask>
<g mask="url(#mask12_16_3)">
<mask id="mask13_16_3" style="mask-type:luminance" maskUnits="userSpaceOnUse" x="1291" y="1082" width="123" height="93">
<path d="M1377.72 1174.59C1345.8 1174.59 1313.7 1161.17 1291.85 1137.92L1346.04 1082.52L1413.53 1105.72C1413.12 1128.52 1412.95 1149.52 1412.81 1168.8C1401.51 1172.72 1389.63 1174.59 1377.72 1174.59Z" fill="white"/>
</mask>
<g mask="url(#mask13_16_3)">
<path d="M1291.85 1174.59H1413.53V1082.52H1291.85V1174.59Z" fill="#5386FE"/>
</g>
</g>
<mask id="mask14_16_3" style="mask-type:luminance" maskUnits="userSpaceOnUse" x="1055" y="757" width="604" height="604">
<path d="M1624.37 1264.59C1689.6 977 1682.27 1006.83 1403.6 1001.84L1380.4 1069.32L1590.68 1274.92C1602.04 1286.03 1621.2 1280.16 1624.37 1264.59ZM1413.53 1105.72L1346.04 1082.52L1140.4 1292.76C1129.29 1304.12 1135.17 1323.28 1150.74 1326.45C1438.19 1391.6 1408.6 1384.51 1413.53 1105.72ZM1332.84 1048.16L1122.56 842.56C1111.2 831.453 1092.04 837.32 1088.86 852.893C1023.7 1140.29 1030.8 1110.71 1309.64 1115.64L1332.84 1048.16ZM1299.71 1011.76L1367.2 1034.97L1572.84 824.72C1583.95 813.36 1578.08 794.2 1562.51 791.026C1275.05 725.88 1304.64 732.973 1299.71 1011.76Z" fill="white"/>
</mask>
<g mask="url(#mask14_16_3)">
<path d="M1454.12 1141.4L1380.4 1069.32L1403.6 1001.84C1425.01 1002.23 1444.84 1002.4 1463.13 1002.53C1482.31 1027.56 1490.39 1061.76 1477.4 1101.71C1471.57 1117.75 1463.59 1130.89 1454.12 1141.4Z" fill="#5386FE"/>
<path d="M1309.64 1115.64C1297.81 1115.43 1286.48 1115.28 1275.61 1115.17C1263.54 1092.07 1260.08 1063.27 1270.69 1030.63C1274.66 1019.69 1279.64 1010.09 1285.4 1001.77L1332.84 1048.16L1309.64 1115.64Z" fill="#5386FE"/>
<path d="M1367.2 1034.97L1299.71 1011.76C1299.88 1002.44 1300 993.427 1300.1 984.693C1319.98 966.147 1345.12 957.746 1370.36 957.746C1390.4 957.746 1410.49 963.026 1428.09 972.706L1367.2 1034.97Z" fill="#5386FE"/>
</g>
<path d="M1442.87 1088.39C1401.95 1201.08 1233.32 1143.08 1270.38 1029.08C1311.3 916.413 1479.92 974.4 1442.87 1088.39Z" fill="#3875FF"/>
<path d="M1081.14 1859.67L994.901 1830.01L1151.14 1375.76L1237.39 1405.41L1081.14 1859.67Z" fill="#3875FF"/>
<path d="M1222.22 1981.8L807.497 1839.2C820.104 1811.77 825.137 1743.45 871.186 1758.44L1221.68 1878.95C1267.23 1895.57 1229.16 1952.33 1222.22 1981.8Z" fill="#739BFD"/>
<path d="M936.536 1883.57C936.536 1883.57 955.618 1875.88 955.618 1873.51C955.618 1871.13 914.416 1870.39 914.416 1870.39C876.9 1832 769.48 1718.87 722.6 1695.12L710.076 1713.59C692.5 1738.4 700.404 1775.73 726.541 1791.28C749.973 1804.24 899.286 1904.49 923.716 1906.43C931.521 1908.45 972.369 1895.89 972.369 1895.89L936.536 1883.57Z" fill="#FFB6A6"/>
<mask id="mask15_16_3" style="mask-type:luminance" maskUnits="userSpaceOnUse" x="700" y="1695" width="273" height="212">
<path d="M936.536 1883.57C936.536 1883.57 955.618 1875.88 955.618 1873.51C955.618 1871.13 914.416 1870.39 914.416 1870.39C876.9 1832 769.48 1718.87 722.598 1695.12L710.076 1713.59C692.5 1738.4 700.404 1775.73 726.54 1791.28C749.974 1804.24 899.286 1904.49 923.716 1906.43C931.521 1908.45 972.369 1895.89 972.369 1895.89L936.536 1883.57Z" fill="white"/>
</mask>
<g mask="url(#mask15_16_3)">
<path d="M688.609 1718.72C688.609 1718.72 749.958 1754.76 795.629 1742.19L717.664 1675.11L688.609 1718.72Z" fill="#FF8370"/>
</g>
<path d="M1167.31 1656.88L1153.83 1648.35L1036.38 1780.23C1036.38 1780.23 996.829 1795.69 1001.39 1796.8C1005.94 1797.92 1018.7 1800.88 1018.7 1800.88L1010.91 1810.52L989.241 1820.68C987.096 1821.69 987.28 1824.8 989.529 1825.55L1015.92 1834.29C1023.78 1836.91 1032.33 1836.57 1039.97 1833.37C1050.9 1829.92 1062.6 1811.08 1069.92 1803.03L1169.82 1729.59C1194.51 1712.45 1193.19 1672.27 1167.31 1656.88Z" fill="#FFB6A6"/>
<path d="M948.522 1425.72C948.522 1425.72 966.623 1469.72 933.136 1504.2L928.528 1425.72H948.522Z" fill="#38385C"/>
<path d="M948.604 1446.49C946.861 1446.49 945.248 1447.83 943.917 1450.08C933.435 1384.43 854.379 1384.47 843.92 1450.09C836.659 1439.84 831.017 1453.47 831.004 1466.52C830.808 1480.67 838.005 1494.45 844.801 1481.2C848.897 1498.69 858.892 1513.08 871.949 1520.8V1549.11H916.723V1520.28C929.365 1512.45 939.027 1498.33 943.039 1481.23C957.087 1503.96 962.177 1446.25 948.604 1446.49Z" fill="#FFB6A6"/>
<mask id="mask16_16_3" style="mask-type:luminance" maskUnits="userSpaceOnUse" x="830" y="1400" width="127" height="150">
<path d="M948.604 1446.49C946.862 1446.49 945.247 1447.83 943.918 1450.08C933.435 1384.43 854.379 1384.47 843.92 1450.09C836.659 1439.84 831.019 1453.47 831.003 1466.52C830.808 1480.67 838.004 1494.45 844.802 1481.2C848.898 1498.69 858.892 1513.08 871.95 1520.8V1549.11H916.723V1520.28C929.364 1512.45 939.027 1498.33 943.039 1481.23C951.204 1494.44 956.343 1480.48 956.55 1466.51C956.699 1456.45 954.288 1446.39 948.604 1446.49Z" fill="white"/>
</mask>
<g mask="url(#mask16_16_3)">
<path d="M847.392 1459.25L882.767 1427.6C882.767 1427.6 891.505 1438.64 926.691 1442.79L921.401 1437.04C921.401 1437.04 929.12 1441.36 945.268 1434.25L904.843 1407.37L866.208 1408.52L847.392 1459.25Z" fill="#FF8370"/>
<path d="M871.95 1520.8C871.95 1520.8 896.19 1527.55 916.723 1520.28C916.723 1520.28 893.144 1536.19 867.938 1536.19L871.95 1520.8Z" fill="#FF8370"/>
</g>
<path d="M847.392 1459.25C854.181 1449.71 870.701 1426.79 880.872 1415.07C880.872 1415.07 895.8 1432.4 924.125 1435.01L906.447 1419.75C906.447 1419.75 933.768 1437.63 958.076 1434.2C949.956 1366.77 825.068 1356.15 835.169 1449.11C837.705 1451.56 842.236 1465.49 847.392 1459.25Z" fill="#38385C"/>
<path d="M881.253 1499.59C881.253 1499.59 899.625 1483.8 908.836 1487.43C918.046 1491.05 881.253 1499.59 881.253 1499.59Z" fill="white"/>
<path d="M593.111 2309.76L587.387 2326.43C587.387 2326.43 594.012 2346.81 608.753 2346.81C623.496 2346.81 624.108 2342.27 624.108 2342.27L637.699 2309.76H593.111Z" fill="#FFB6A6"/>
<mask id="mask17_16_3" style="mask-type:luminance" maskUnits="userSpaceOnUse" x="587" y="2309" width="51" height="38">
<path d="M593.11 2309.76L587.388 2326.43C587.388 2326.43 594.012 2346.81 608.753 2346.81C623.496 2346.81 624.108 2342.27 624.108 2342.27L637.698 2309.76H593.11Z" fill="white"/>
</mask>
<g mask="url(#mask17_16_3)">
<path d="M637.698 2326.97C637.698 2326.97 592.848 2319.59 582.958 2310.4L582.488 2301.59L646.569 2307.08L637.698 2326.97Z" fill="#FF8370"/>
</g>
<path d="M624.108 2342.27C624.108 2342.27 593.515 2350.11 587.171 2324.67L527.252 2353.08C518.663 2357.16 513.552 2366.17 514.476 2375.64L619.352 2374.23C634.196 2373.85 624.092 2350.16 624.108 2342.27Z" fill="#38385C"/>
<path d="M943.317 2309.76C937.665 2319.63 935.552 2344.6 915.231 2346.81C900.488 2346.81 899.876 2342.27 899.876 2342.27L904.381 2309.76H943.317Z" fill="#FFB6A6"/>
<mask id="mask18_16_3" style="mask-type:luminance" maskUnits="userSpaceOnUse" x="899" y="2309" width="45" height="38">
<path d="M943.317 2309.76C937.665 2319.63 935.552 2344.6 915.231 2346.81C900.488 2346.81 899.876 2342.27 899.876 2342.27L904.381 2309.76H943.317Z" fill="white"/>
</mask>
<g mask="url(#mask18_16_3)">
<path d="M886.284 2326.97C886.284 2326.97 936.764 2318.95 946.653 2309.76L941.496 2301.59L877.415 2307.08L886.284 2326.97Z" fill="#FF8370"/>
</g>
<path d="M899.876 2342.27C899.876 2342.27 930.468 2350.11 936.812 2324.67L996.731 2353.08C1005.32 2357.16 1010.43 2366.17 1009.51 2375.64L904.632 2374.23C889.785 2373.85 899.892 2350.16 899.876 2342.27Z" fill="#38385C"/>
<path d="M1957.99 1392.05H1947.68C1947.13 1361.72 1972.69 1361.49 1973.43 1334C1972.69 1306.52 1947.13 1306.28 1947.68 1275.96C1947.13 1245.63 1972.69 1245.4 1973.43 1217.91C1972.69 1190.43 1947.13 1190.19 1947.68 1159.85C1947.13 1129.53 1972.69 1129.29 1973.43 1101.8H1983.73C1984.28 1132.15 1958.72 1132.36 1957.97 1159.85C1958.72 1187.35 1984.28 1187.59 1983.73 1217.91C1984.28 1248.24 1958.72 1248.47 1957.97 1275.96C1958.72 1303.44 1984.28 1303.68 1983.73 1334C1984.28 1364.32 1958.72 1364.57 1957.99 1392.05Z" fill="white"/>
<path d="M2029.69 1392.05H2019.4C2018.84 1361.72 2044.41 1361.49 2045.15 1334C2044.41 1306.52 2018.84 1306.28 2019.4 1275.96C2018.84 1245.63 2044.41 1245.4 2045.15 1217.91C2044.41 1190.43 2018.84 1190.19 2019.4 1159.85C2018.84 1129.53 2044.41 1129.29 2045.15 1101.8H2055.45C2056 1132.15 2030.44 1132.36 2029.69 1159.85C2030.44 1187.35 2056 1187.59 2055.44 1217.91C2056 1248.24 2030.44 1248.47 2029.69 1275.96C2030.44 1303.44 2056 1303.68 2055.44 1334C2056 1364.32 2030.44 1364.57 2029.69 1392.05Z" fill="white"/>
<path d="M2101.41 1392.05H2091.11C2090.56 1361.72 2116.12 1361.49 2116.87 1334C2116.12 1306.52 2090.56 1306.28 2091.11 1275.96C2090.56 1245.63 2116.12 1245.4 2116.87 1217.91C2116.12 1190.43 2090.56 1190.19 2091.11 1159.85C2090.56 1129.53 2116.12 1129.29 2116.87 1101.8H2127.16C2127.71 1132.15 2102.15 1132.36 2101.41 1159.85C2102.15 1187.35 2127.72 1187.59 2127.16 1217.91C2127.71 1248.24 2102.15 1248.47 2101.41 1275.96C2102.15 1303.44 2127.72 1303.68 2127.16 1334C2127.71 1364.32 2102.15 1364.57 2101.41 1392.05Z" fill="white"/>
<path d="M3661.81 2381.35C3655.67 2375.24 315.763 2393.05 317.093 2375.24C308.824 2369.07 3699.51 2352.49 3661.81 2381.35Z" fill="#38385C"/>
</svg>
