<svg width="667" height="541" viewBox="0 0 667 541" fill="none" xmlns="http://www.w3.org/2000/svg">
<g clip-path="url(#clip0_18_2)">
<path d="M666.667 480.783H0V480.449H666.667V480.783Z" fill="#E7E8E5"/>
<path d="M555.705 501.911H599.868V502.244H555.705V501.911Z" fill="#E7E8E5"/>
<path d="M347.113 497.732H364.296V498.065H347.113V497.732Z" fill="#E7E8E5"/>
<path d="M430.036 499.141H466.223V499.474H430.036V499.141Z" fill="#E7E8E5"/>
<path d="M479.556 489.529H554.37V489.862H479.556V489.529Z" fill="#E7E8E5"/>
<path d="M69.9453 504.954H105.314V505.288H69.9453V504.954Z" fill="#E7E8E5"/>
<path d="M117.186 504.954H147.852V505.288H117.186V504.954Z" fill="#E7E8E5"/>
<path d="M255.752 497.898H174.667V497.565H255.752V497.898Z" fill="#E7E8E5"/>
<path d="M58.5533 44.188C54.5398 44.188 51.2757 47.4534 51.2757 51.4654V413.373C51.2757 417.386 54.5398 420.651 58.5533 420.651H316.018C320.029 420.651 323.294 417.386 323.294 413.373V51.4654C323.294 47.4534 320.029 44.188 316.018 44.188H58.5533ZM316.018 420.984H58.5533C54.3565 420.984 50.9424 417.571 50.9424 413.373V51.4654C50.9424 47.2694 54.3565 43.8547 58.5533 43.8547H316.018C320.213 43.8547 323.628 47.2694 323.628 51.4654V413.373C323.628 417.571 320.213 420.984 316.018 420.984Z" fill="#E7E8E5"/>
<path d="M346.949 44.188C342.937 44.188 339.673 47.4534 339.673 51.4654V413.373C339.673 417.386 342.937 420.651 346.949 420.651H604.414C608.426 420.651 611.692 417.386 611.692 413.373V51.4654C611.692 47.4534 608.426 44.188 604.414 44.188H346.949ZM604.414 420.984H346.949C342.753 420.984 339.34 417.571 339.34 413.373V51.4654C339.34 47.2694 342.753 43.8547 346.949 43.8547H604.414C608.61 43.8547 612.025 47.2694 612.025 51.4654V413.373C612.025 417.571 608.61 420.984 604.414 420.984Z" fill="#E7E8E5"/>
<path d="M622.751 229.48C627.091 214.435 626.295 199.135 621.429 185.421C625.232 179.977 628.233 173.837 630.177 167.099C639.105 136.143 622.824 103.896 593.459 92.2906C587.793 51.7373 559.009 16.2906 517.124 4.20929C484.008 -5.34138 450.048 1.83994 424.229 20.7293C417.768 13.9666 409.499 8.76126 399.864 5.9826C370.823 -2.3934 340.489 14.3599 332.113 43.4013C330.713 48.2573 330.031 53.1493 329.975 57.9706C300.751 63.8573 275.723 85.3986 266.891 116.024C258.956 143.536 265.979 171.809 283.147 192.169C280.928 196.179 279.107 200.485 277.783 205.076C268.275 238.043 287.292 272.479 320.26 281.985C331.131 285.121 342.155 285.139 352.399 282.592C364.519 299.304 382.073 312.261 403.445 318.425C430.945 326.357 459.095 321.423 481.5 307.205C491.527 330.532 499.771 365.516 482.029 399.821C546.488 393.5 593.037 331.672 583.551 275.027C601.944 266.561 616.7 250.464 622.751 229.48Z" fill="#E7E8E5"/>
<path d="M486.355 290.159C486.487 290.159 486.619 290.179 486.748 290.219C487.121 290.333 487.424 290.607 487.579 290.967L492.523 302.467C501.025 322.24 509.26 352.191 501.016 383.71C521.024 377.325 539.147 364.495 552.251 347.385C568.547 326.105 575.641 300.453 571.715 277.008L570.368 268.965C570.268 268.371 570.579 267.785 571.125 267.535L578.533 264.125C594.461 256.795 606.376 242.956 611.223 226.155C614.721 214.023 614.34 201.325 610.12 189.435L608.284 184.259C608.14 183.855 608.201 183.404 608.448 183.051L611.592 178.549C614.748 174.032 617.121 169.06 618.647 163.773C625.824 138.889 613.1 112.956 589.049 103.451L583.265 101.164C582.819 100.988 582.501 100.585 582.436 100.109L581.576 93.9518C576.387 56.8185 549.783 26.1185 513.799 15.7399C505.183 13.2545 496.319 11.9959 487.451 11.9959C467.484 11.9959 447.548 18.5385 431.315 30.4145L423.765 35.9359C423.224 36.3319 422.476 36.2639 422.013 35.7812L415.552 29.0185C410.359 23.5812 403.783 19.6025 396.537 17.5132C392.657 16.3932 388.665 15.8252 384.672 15.8252C365.763 15.8252 348.891 28.5332 343.644 46.7279C342.58 50.4159 342.019 54.2439 341.975 58.1065L341.877 66.7385C341.871 67.3665 341.424 67.9052 340.807 68.0305L332.345 69.7345C306.404 74.9585 285.741 93.9705 278.42 119.349C271.881 142.025 277.077 166.356 292.321 184.433L297.056 190.048C297.413 190.471 297.471 191.069 297.204 191.553L293.647 197.981C291.807 201.304 290.349 204.811 289.312 208.401C285.603 221.264 287.124 234.805 293.597 246.527C300.071 258.248 310.721 266.747 323.585 270.456C332.051 272.896 341.003 273.061 349.505 270.947L356.488 269.211C357.013 269.077 357.569 269.28 357.889 269.723L362.113 275.547C373.193 290.824 388.636 301.665 406.771 306.896C414.387 309.092 422.221 310.205 430.06 310.205C445.968 310.205 461.531 305.664 475.069 297.073L485.64 290.365C485.856 290.229 486.104 290.159 486.355 290.159ZM499.089 387.028C498.743 387.028 498.403 386.892 498.149 386.64C497.804 386.297 497.675 385.793 497.808 385.325C506.888 353.702 498.613 323.384 490.075 303.519L485.747 293.456L476.499 299.325C462.532 308.188 446.473 312.872 430.06 312.872C421.972 312.872 413.887 311.724 406.032 309.459C387.32 304.061 371.388 292.876 359.955 277.112L356.257 272.016L350.148 273.535C341.192 275.761 331.76 275.587 322.847 273.019C309.299 269.111 298.081 260.16 291.263 247.815C284.444 235.471 282.843 221.211 286.749 207.661C287.841 203.879 289.377 200.187 291.313 196.689L294.425 191.065L290.283 186.152C274.464 167.393 269.071 142.143 275.859 118.609C283.455 92.2705 304.897 72.5412 331.819 67.1198L339.223 65.6292L339.308 58.0759C339.355 53.9732 339.951 49.9065 341.081 45.9878C346.656 26.6585 364.581 13.1585 384.672 13.1585C388.915 13.1585 393.157 13.7612 397.277 14.9505C404.975 17.1705 411.961 21.3985 417.48 27.1772L423.135 33.0932L429.74 28.2625C446.427 16.0532 466.923 9.32919 487.451 9.32919C496.568 9.32919 505.681 10.6239 514.537 13.1772C551.531 23.8479 578.883 55.4092 584.216 93.5825L584.969 98.9705L590.029 100.972C615.364 110.984 628.769 138.301 621.209 164.513C619.603 170.083 617.103 175.317 613.779 180.076L611.028 184.015L612.633 188.544C617.04 200.963 617.439 214.223 613.784 226.895C608.723 244.44 596.281 258.893 579.648 266.547L573.167 269.531L574.345 276.568C578.393 300.74 571.112 327.143 554.367 349.008C540.42 367.217 520.923 380.701 499.464 386.975C499.34 387.011 499.215 387.028 499.089 387.028Z" fill="white"/>
<path d="M367.147 169.249L405.424 175.208L400.168 208.972L361.891 203.012L367.147 169.249ZM405.588 165.502L369.848 159.938L370.404 156.366C371.352 150.284 372.81 145.454 374.78 141.874C376.75 138.296 379.343 135.153 382.558 132.441C385.774 129.732 392.762 125.168 403.522 118.752C409.246 115.404 412.375 112.006 412.911 108.558C413.448 105.11 412.847 102.272 411.107 100.041C409.367 97.8117 406.428 96.3743 402.29 95.7303C397.838 95.0357 393.924 95.937 390.551 98.4277C387.176 100.924 384.51 105.772 382.554 112.982L346.766 102.788C350.108 89.565 356.663 79.5237 366.435 72.665C376.204 65.805 389.867 63.7423 407.423 66.4757C421.091 68.6023 431.682 73.1757 439.195 80.1877C449.406 89.6743 453.51 100.849 451.51 113.7C450.679 119.03 448.404 123.941 444.687 128.436C440.968 132.93 434.008 138.044 423.804 143.776C416.69 147.808 412.066 151.212 409.931 153.994C407.796 156.776 406.348 160.613 405.588 165.502Z" fill="white"/>
<path d="M471.997 206.469L493.248 223.684L478.064 242.428L456.813 225.213L471.997 206.469ZM496.791 217.817L476.948 201.745L478.555 199.76C481.291 196.384 483.893 193.953 486.365 192.468C488.837 190.98 491.535 189.981 494.46 189.468C497.383 188.953 503.267 188.645 512.111 188.546C516.793 188.533 519.907 187.569 521.459 185.654C523.009 183.741 523.648 181.794 523.377 179.816C523.107 177.837 521.823 175.918 519.525 174.057C517.053 172.054 514.345 171.216 511.403 171.54C508.457 171.866 505.111 173.88 501.359 177.589L483.129 158.67C489.859 151.785 497.423 147.98 505.82 147.26C514.216 146.537 523.288 150.124 533.035 158.02C540.624 164.166 545.465 170.713 547.565 177.66C550.433 187.073 548.975 195.349 543.196 202.482C540.799 205.442 537.668 207.634 533.804 209.06C529.94 210.484 523.877 211.137 515.616 211.016C509.844 210.953 505.813 211.39 503.524 212.333C501.233 213.273 498.989 215.101 496.791 217.817Z" fill="white"/>
<path d="M490.338 92.4784L499.536 105.038L488.458 113.15L479.26 100.59L490.338 92.4784ZM502.337 102.322L493.749 90.5957L494.921 89.7384C496.917 88.2757 498.702 87.3157 500.278 86.8571C501.856 86.3984 503.485 86.2398 505.169 86.3798C506.853 86.5224 510.137 87.2064 515.018 88.4357C517.597 89.1077 519.452 89.0304 520.584 88.2024C521.714 87.3717 522.349 86.3944 522.488 85.2664C522.625 84.1384 522.197 82.8944 521.202 81.5384C520.133 80.0771 518.764 79.2211 517.097 78.9731C515.429 78.7251 513.294 79.3478 510.69 80.8438L503.404 67.7851C508.108 64.9731 512.822 63.9757 517.549 64.7984C522.276 65.6197 526.748 68.9104 530.966 74.6704C534.252 79.1557 535.966 83.4624 536.113 87.5904C536.325 93.1877 534.322 97.5304 530.105 100.62C528.356 101.901 526.316 102.652 523.981 102.876C521.648 103.098 518.216 102.578 513.686 101.312C510.518 100.44 508.236 100.096 506.84 100.282C505.442 100.468 503.942 101.148 502.337 102.322Z" fill="white"/>
<path d="M127.635 69.2262C115.593 69.2262 103.846 73.1969 94.0682 80.7956C76.9697 94.0822 69.2639 116.269 74.4374 137.318C74.527 137.685 74.4135 138.072 74.1395 138.33C62.3259 149.472 60.9406 167.556 70.9172 180.394C73.0374 183.122 75.5781 185.469 78.4687 187.368C78.7515 187.553 78.927 187.864 78.9401 188.201C79.239 195.896 81.8958 203.178 86.6239 209.262C93.1693 217.686 103.049 222.833 113.731 223.385C114.202 223.409 114.599 223.746 114.698 224.206C117.645 237.77 126.954 250.09 140.239 258.009C153.94 266.176 170.175 268.633 185.077 264.866C170.769 251.482 168.111 233.32 168.453 220.245C168.461 219.938 168.604 219.65 168.841 219.458C169.081 219.266 169.389 219.19 169.693 219.244C183.541 221.845 197.852 218.386 208.956 209.758C217.683 202.978 223.727 193.732 226.436 183.018C226.54 182.604 226.885 182.296 227.308 182.238C232.764 181.489 237.949 179.306 242.305 175.922C256 165.278 258.484 145.478 247.841 131.784C246.405 129.934 244.741 128.23 242.896 126.721C242.56 126.446 242.429 125.993 242.565 125.582C247.017 112.181 244.512 97.5356 235.861 86.4049C226.181 73.9476 210.513 67.9809 194.968 70.8209C194.48 70.9116 194 70.6476 193.812 70.1916C192.863 67.8889 191.611 65.7289 190.088 63.7703C185.568 57.9529 179.052 54.2436 171.741 53.3262C164.431 52.4036 157.2 54.3943 151.383 58.9143C147.539 61.9023 144.548 65.8636 142.733 70.3689C142.537 70.8569 142.007 71.1222 141.503 70.9916C136.9 69.8089 132.245 69.2262 127.635 69.2262ZM171.113 268.684C160.088 268.684 148.997 265.664 139.168 259.806C125.638 251.744 116.078 239.246 112.829 225.425C101.846 224.636 91.7281 219.242 84.9713 210.546C80.0833 204.256 77.2895 196.754 76.8739 188.817C73.9745 186.848 71.4166 184.446 69.265 181.678C58.7483 168.145 60.0697 149.145 72.2635 137.23C67.1797 115.554 75.1937 92.8116 92.7843 79.1449C106.583 68.4209 124.159 64.6529 141.147 68.7476C143.123 64.2463 146.204 60.2889 150.099 57.2622C156.359 52.3996 164.136 50.2649 172.001 51.2489C179.867 52.2369 186.877 56.2276 191.741 62.4862C193.207 64.3729 194.44 66.4329 195.415 68.6209C211.46 65.9942 227.525 72.2636 237.515 85.1209C246.447 96.6156 249.137 111.684 244.772 125.561C246.52 127.054 248.107 128.712 249.495 130.5C260.844 145.105 258.195 166.222 243.588 177.573C239.129 181.038 233.852 183.325 228.288 184.208C225.383 195.089 219.153 204.484 210.24 211.41C198.988 220.154 184.579 223.805 170.523 221.514C170.381 234.468 173.392 252.028 187.889 264.582C188.179 264.832 188.308 265.221 188.227 265.596C188.144 265.972 187.864 266.27 187.496 266.377C182.165 267.922 176.647 268.682 171.113 268.684Z" fill="#E2E2E0"/>
<path d="M116.231 166.575L135.957 161.929L140.053 179.329L120.327 183.975L116.231 166.575ZM134.126 157.195L115.708 161.531L115.275 159.689C114.536 156.555 114.293 153.925 114.543 151.804C114.794 149.681 115.432 147.647 116.457 145.701C117.482 143.755 119.971 140.167 123.925 134.94C126.04 132.191 126.888 129.928 126.469 128.151C126.051 126.375 125.201 125.117 123.919 124.377C122.636 123.64 120.93 123.521 118.797 124.024C116.502 124.564 114.783 125.769 113.638 127.643C112.493 129.515 112.155 132.389 112.626 136.269L93.2725 138.371C92.2907 131.305 93.4922 125.148 96.8787 119.9C100.264 114.651 106.48 110.964 115.527 108.833C122.571 107.175 128.604 107.307 133.626 109.228C140.442 111.816 144.63 116.424 146.19 123.047C146.837 125.795 146.701 128.623 145.784 131.533C144.865 134.444 142.498 138.292 138.68 143.079C136.025 146.432 134.453 148.992 133.966 150.76C133.48 152.529 133.533 154.673 134.126 157.195Z" fill="#E7E8E5"/>
<path d="M166.753 117.681L180.443 121.842L176.771 133.917L163.083 129.754L166.753 117.681ZM181.004 118.302L168.224 114.416L168.612 113.138C169.273 110.964 170.057 109.272 170.963 108.066C171.869 106.86 172.98 105.844 174.296 105.02C175.612 104.194 178.404 102.888 182.671 101.098C184.937 100.172 186.257 99.0903 186.632 97.8583C187.007 96.625 186.935 95.5557 186.413 94.649C185.893 93.745 184.893 93.0663 183.413 92.617C181.82 92.133 180.343 92.2597 178.98 92.9957C177.617 93.733 176.391 95.369 175.303 97.9037L162.744 92.321C164.651 87.6597 167.568 84.3263 171.496 82.325C175.424 80.3223 180.527 80.2757 186.805 82.185C191.693 83.6703 195.329 85.8917 197.713 88.845C200.956 92.8437 201.877 97.1423 200.48 101.737C199.9 103.642 198.815 105.321 197.223 106.773C195.629 108.224 192.82 109.733 188.792 111.301C185.981 112.406 184.113 113.412 183.189 114.318C182.264 115.225 181.536 116.553 181.004 118.302Z" fill="#E7E8E5"/>
<path d="M591.852 525.569C591.852 533.908 476.111 540.667 333.333 540.667C190.557 540.667 74.8145 533.908 74.8145 525.569C74.8145 517.231 190.557 510.472 333.333 510.472C476.111 510.472 591.852 517.231 591.852 525.569Z" fill="#F3F2F1"/>
<path d="M209.625 285.229C207.039 279.545 202.229 275.961 195.719 274.864L195.94 273.548C202.908 274.722 208.06 278.572 210.839 284.677L209.625 285.229ZM210.149 300.502L208.921 299.981C210.024 297.376 210.659 295.214 210.86 293.374L212.185 293.521C211.969 295.492 211.303 297.774 210.149 300.502Z" fill="#406FBF"/>
<path d="M190.665 323.577L204.714 317.181L210.356 329.573L196.306 335.971L190.665 323.577ZM202.644 313.915L189.525 319.885L188.929 318.575C187.912 316.341 187.34 314.415 187.213 312.792C187.085 311.168 187.26 309.555 187.737 307.947C188.214 306.341 189.541 303.292 191.72 298.8C192.893 296.431 193.19 294.616 192.614 293.351C192.038 292.085 191.217 291.271 190.149 290.909C189.081 290.547 187.789 290.712 186.269 291.404C184.636 292.147 183.529 293.305 182.952 294.872C182.374 296.441 182.548 298.641 183.476 301.471L169.326 305.911C167.545 300.776 167.529 295.997 169.281 291.575C171.032 287.151 175.129 283.473 181.573 280.539C186.59 278.256 191.117 277.459 195.154 278.148C200.632 279.072 204.444 281.893 206.592 286.611C207.482 288.568 207.801 290.701 207.546 293.012C207.293 295.321 206.094 298.548 203.952 302.691C202.466 305.591 201.672 307.737 201.57 309.131C201.469 310.525 201.826 312.119 202.644 313.915Z" fill="#406FBF"/>
<path d="M165.694 354.702L172.841 345L181.4 351.305L174.252 361.008L165.694 354.702ZM170.188 343.56L163.513 352.62L162.608 351.952C161.066 350.816 159.944 349.72 159.24 348.661C158.536 347.604 158.041 346.436 157.756 345.158C157.47 343.882 157.216 341.3 156.993 337.408C156.892 335.348 156.405 333.996 155.53 333.352C154.657 332.708 153.788 332.466 152.922 332.625C152.057 332.784 151.237 333.388 150.465 334.437C149.633 335.566 149.32 336.774 149.521 338.064C149.724 339.354 150.678 340.786 152.386 342.364L144.428 350.769C141.261 347.946 139.433 344.694 138.946 341.013C138.458 337.33 139.854 333.265 143.132 328.814C145.685 325.35 148.469 323.086 151.484 322.022C155.569 320.569 159.241 321.042 162.5 323.442C163.85 324.438 164.878 325.772 165.584 327.444C166.289 329.116 166.698 331.772 166.813 335.41C166.902 337.953 167.176 339.718 167.637 340.706C168.097 341.697 168.948 342.646 170.188 343.56Z" fill="#406FBF"/>
<path d="M312.117 520.765C309.953 520.765 307.864 519.588 306.801 517.533C301.444 507.182 294.712 495.036 282.596 481.889C281.179 480.353 280.668 478.188 281.247 476.18C285.747 460.565 292.808 439.221 292.879 439.007C293.917 435.869 297.301 434.173 300.436 435.211C303.572 436.249 305.272 439.633 304.233 442.768C304.168 442.966 298.085 461.352 293.669 476.31C304.805 488.94 311.671 500.921 317.424 512.035C318.943 514.968 317.796 518.577 314.863 520.094C313.983 520.55 313.044 520.765 312.117 520.765Z" fill="#406FBF"/>
<path d="M322.082 525.569H275.696L300.278 511.625L320.884 512.423L322.082 525.569Z" fill="#17282F"/>
<path d="M347.22 433.829C347.379 452.409 329.825 469.203 308.015 471.34C286.203 473.477 268.393 460.147 268.233 441.568C268.075 422.988 285.628 406.196 307.44 404.059C329.251 401.921 347.061 415.252 347.22 433.829Z" fill="#17282F"/>
<path d="M202.204 415.893C199.857 415.895 197.63 414.504 196.676 412.201C195.412 409.148 196.861 405.649 199.913 404.385C203.386 402.947 203.869 399.395 203.873 399.36C204.124 396.687 206.124 394.508 208.766 394.033C210.192 393.775 211.568 393.372 213.162 392.907C221.266 390.539 231.302 387.604 262.909 396.456C294.084 379.021 294.438 346.327 294.438 344.916C294.437 341.62 297.102 338.935 300.398 338.924H300.418C303.705 338.924 306.378 341.567 306.398 344.856C306.41 346.592 306.217 387.633 266.342 408.188C264.984 408.888 263.412 409.044 261.942 408.617C231.816 399.917 223.333 402.396 216.518 404.388C215.914 404.564 215.304 404.744 214.678 404.917C213.202 408.712 210.13 413.1 204.49 415.437C203.742 415.748 202.966 415.893 202.204 415.893Z" fill="#17282F"/>
<path d="M272.108 373.107C260.767 328.007 230.53 211.692 327.398 204.581C414.302 198.201 438.154 313.875 443.951 353.948C447.33 377.304 448.464 398.487 448.663 415.04C448.918 436.393 433.916 454.807 412.988 459.057C365.64 468.674 320.834 470.04 290.658 458.131C282.498 454.909 277.562 446.595 278.347 437.857C279.51 424.903 279.531 402.623 272.108 373.107Z" fill="#406FBF"/>
<path d="M425.69 454.397C438.025 447.598 446.59 435.238 448.336 420.984H448.34C446.593 435.241 438.028 447.602 425.69 454.397ZM448.38 420.65H448.376C448.586 418.809 448.685 416.937 448.662 415.04C448.498 401.314 447.689 384.405 445.492 365.714C447.693 384.409 448.501 401.317 448.666 415.037C448.689 416.935 448.59 418.808 448.38 420.65Z" fill="#E0E1DE"/>
<path d="M448.34 420.984H448.336C448.349 420.873 448.363 420.763 448.376 420.651H448.38C448.367 420.763 448.353 420.873 448.34 420.984Z" fill="#CCCDCB"/>
<path d="M367.734 465.665C355.706 440.888 369.527 423.291 372.247 401.252C378.22 352.812 338.667 263.919 322.08 238.199C317.052 230.404 316.943 222.519 320.302 216.016C324.028 208.8 331.687 204.572 339.738 204.572C340.4 204.572 341.067 204.601 341.734 204.659C416.986 211.221 438.484 316.179 443.947 353.944C444.526 357.935 445.039 361.863 445.492 365.715C447.69 384.405 448.499 401.315 448.663 415.04C448.686 416.937 448.587 418.809 448.376 420.651C448.363 420.763 448.35 420.873 448.336 420.984C446.591 435.239 438.026 447.598 425.691 454.397C421.8 456.541 417.534 458.129 412.987 459.051C397.48 462.211 382.254 464.465 367.734 465.665Z" fill="#3B69BB"/>
<path d="M430.985 415.638C430.658 415.638 430.39 415.374 430.388 415.047C430.141 394.444 428.557 373.916 425.681 354.034C411.282 254.497 372.514 204.156 313.552 208.5C313.23 208.538 312.936 208.277 312.912 207.948C312.888 207.618 313.136 207.33 313.465 207.308C373.134 202.906 412.361 253.604 426.865 353.862C429.749 373.796 431.336 394.377 431.584 415.035C431.588 415.364 431.322 415.635 430.993 415.638H430.985Z" fill="#17282F"/>
<path d="M459.658 437.02C459.817 455.598 442.264 472.392 420.453 474.529C398.641 476.665 380.832 463.336 380.673 444.756C380.513 426.179 398.066 409.384 419.878 407.248C441.689 405.111 459.5 418.44 459.658 437.02Z" fill="#17282F"/>
<path d="M433.727 520.765C431.563 520.765 429.474 519.588 428.411 517.533C423.054 507.182 416.322 495.037 404.206 481.889C402.79 480.352 402.278 478.188 402.858 476.18C407.356 460.565 414.418 439.221 414.488 439.007C415.527 435.87 418.906 434.165 422.047 435.211C425.183 436.249 426.883 439.633 425.844 442.768C425.778 442.966 419.695 461.352 415.279 476.31C426.416 488.94 433.28 500.921 439.034 512.035C440.552 514.968 439.406 518.577 436.472 520.094C435.592 520.55 434.654 520.765 433.727 520.765Z" fill="#406FBF"/>
<path d="M421.168 338.46C419.016 338.46 416.937 337.296 415.867 335.257C414.335 332.339 415.455 328.731 418.367 327.191C419.52 326.577 445.56 312.344 452.871 278.164C435.509 270.904 404.307 254.513 397.484 246.275C396.824 245.477 396.381 244.521 396.201 243.5C396.041 242.6 394.919 235.529 397.536 228.831L394.387 222.749C392.868 219.815 394.015 216.207 396.948 214.688C399.881 213.173 403.491 214.315 405.009 217.249L409.54 225.999C410.508 227.869 410.421 230.112 409.309 231.903C407.879 234.208 407.701 237.585 407.817 239.785C415.501 246.727 446.539 263.176 461.72 268.812C464.384 269.801 465.984 272.528 465.549 275.335C458.787 319.024 425.361 337.029 423.943 337.773C423.056 338.24 422.105 338.46 421.168 338.46Z" fill="#17282F"/>
<path d="M402.088 245.451C401.527 245.451 400.96 245.293 400.455 244.964C399.072 244.06 398.684 242.207 399.587 240.824C399.793 240.508 404.737 233.051 412.257 231.036C413.851 230.605 415.493 231.556 415.92 233.151C416.348 234.747 415.401 236.385 413.805 236.812C408.555 238.22 404.632 244.036 404.593 244.095C404.02 244.973 403.064 245.451 402.088 245.451Z" fill="#17282F"/>
<path d="M443.691 525.569H397.306L421.887 511.625L442.495 512.423L443.691 525.569Z" fill="#17282F"/>
<path d="M375.784 315.536C377.181 331.329 364.089 345.392 346.541 346.945C328.993 348.497 313.635 336.954 312.237 321.161C310.839 305.368 323.931 291.306 341.479 289.753C359.028 288.2 374.385 299.744 375.784 315.536Z" fill="white"/>
<path d="M344.666 318.739C347.078 327.205 345.26 335.145 340.604 336.473C335.95 337.8 330.219 332.011 327.806 323.541C325.394 315.075 327.211 307.133 331.867 305.808C336.522 304.48 342.252 310.269 344.666 318.739Z" fill="#17282F"/>
<path d="M307.727 323.732C327.863 321.14 367.735 309.776 374.313 305.192C369.129 290.04 345.035 277.083 323.476 284.38C304.043 290.96 307.727 323.732 307.727 323.732Z" fill="#17282F"/>
<path d="M311.646 333.465C336.635 328.716 369.129 320.741 378.424 315.632C377.851 331.936 373.117 348.452 347.599 354.035C326.749 358.595 311.646 333.465 311.646 333.465Z" fill="#17282F"/>
<path d="M298.652 331.924C299.404 344.685 290.476 353.449 278.71 351.501C266.945 349.553 256.798 337.63 256.046 324.869C255.294 312.11 264.222 303.346 275.988 305.294C287.753 307.242 297.9 319.165 298.652 331.924Z" fill="white"/>
<path d="M277.783 328.824C279.3 335.968 277.989 341.925 274.858 342.133C271.726 342.341 267.957 336.718 266.441 329.576C264.924 322.432 266.234 316.474 269.365 316.265C272.497 316.058 276.265 321.681 277.783 328.824Z" fill="#17282F"/>
<path d="M252.998 326.089C266.507 327.684 293.331 325.905 297.788 323.467C294.495 310.529 278.516 295.903 263.999 297.779C250.914 299.471 252.998 326.089 252.998 326.089Z" fill="#17282F"/>
<path d="M255.507 334.506C272.291 335.27 294.137 334.841 300.419 332.478C299.845 345.286 296.484 357.508 279.336 357.308C265.325 357.144 255.507 334.506 255.507 334.506Z" fill="#17282F"/>
<path d="M352.117 276.317C326.937 276.317 310.195 263.877 309.373 263.255C306.741 261.257 306.225 257.507 308.221 254.873C310.215 252.249 313.956 251.731 316.585 253.712C316.875 253.924 336.764 268.427 364.371 263.195C367.617 262.585 370.747 264.712 371.361 267.956C371.976 271.201 369.844 274.331 366.6 274.947C361.527 275.909 356.681 276.317 352.117 276.317Z" fill="#17282F"/>
<path d="M245.171 266.006C244.499 266.008 243.816 265.893 243.148 265.653C240.04 264.536 238.425 261.11 239.543 258.002C242.713 249.177 247.971 243.446 255.169 240.972C268.219 236.477 282.272 245.214 282.863 245.589C285.656 247.354 286.489 251.048 284.725 253.84C282.965 256.625 279.281 257.464 276.492 255.712C273.769 254.018 265.327 250.105 259.025 252.294C255.393 253.556 252.703 256.748 250.799 262.046C249.923 264.486 247.623 266.006 245.171 266.006Z" fill="#17282F"/>
<path d="M292.308 366.913C292.143 366.913 291.976 366.89 291.809 366.841C290.868 366.566 290.319 365.597 290.581 364.65C290.627 364.488 291.751 360.614 296.664 358.08C303.525 354.541 313.981 355.273 327.743 360.256C328.673 360.592 329.156 361.622 328.819 362.553C328.481 363.486 327.452 363.972 326.521 363.63C310.741 357.914 302.551 359.149 298.456 361.194C294.883 362.978 294.065 365.526 294.032 365.634C293.795 366.408 293.08 366.913 292.308 366.913Z" fill="#17282F"/>
<path d="M235.843 360.344C201.041 363.469 176.128 377.878 176.128 377.878C186.433 375.932 223.268 421.514 232.739 456.67C250.209 450.193 270.581 445.782 292.309 442.336C279.149 406.101 255.084 365.054 235.843 360.344Z" fill="#406FBF"/>
<path d="M232.739 456.67C228.785 441.995 220.067 425.509 210.497 411.416C208.1 407.883 205.644 404.497 203.201 401.333C198.108 394.737 193.055 389.086 188.595 384.977C201.987 379.684 221.528 373.838 230.904 372.717C228.671 370.65 227.784 368.762 227.785 367.112C227.791 363.481 232.1 361.006 235.843 360.344C255.084 365.054 279.149 406.101 292.309 442.336C287.771 443.056 283.289 443.818 278.883 444.631C275.451 445.266 272.065 445.931 268.731 446.633C255.843 449.345 243.717 452.6 232.739 456.67Z" fill="#A4C3E9"/>
<path d="M235.842 360.344C213.069 357.773 176.093 376.84 176.093 376.84C169.542 381.017 171.321 388.854 174.896 392.16C178.325 387.24 216.54 374.434 230.904 372.717C223.756 366.105 230.397 361.309 235.842 360.344Z" fill="#406FBF"/>
<path d="M174.896 392.16C173.056 390.458 171.692 387.557 171.694 384.572C171.697 381.757 172.914 378.868 176.093 376.84C176.093 376.84 208.546 360.105 231.372 360.105C232.909 360.105 234.405 360.181 235.842 360.344C232.1 361.006 227.79 363.481 227.785 367.112C227.784 368.762 228.67 370.65 230.904 372.717C221.528 373.838 201.986 379.684 188.594 384.977C181.47 387.793 176.086 390.452 174.896 392.16Z" fill="#5D87CD"/>
<path d="M202.208 415.893C200.253 415.893 198.34 414.937 197.193 413.18C192.856 406.535 195.565 396.393 196.152 394.428C197.097 391.263 200.428 389.465 203.594 390.411C206.756 391.355 208.554 394.68 207.616 397.841C206.638 401.188 206.441 405.464 207.21 406.644C209.016 409.409 208.236 413.114 205.47 414.921C204.461 415.579 203.328 415.893 202.208 415.893Z" fill="#17282F"/>
</g>
<defs>
<clipPath id="clip0_18_2">
<rect width="666.667" height="540.667" fill="white"/>
</clipPath>
</defs>
</svg>
