<svg width="3388" height="1875" viewBox="0 0 3388 1875" fill="none" xmlns="http://www.w3.org/2000/svg">
<path d="M3289.47 1866.64H56.7451L12.7824 943.546C7.61307 834.986 45.4851 728.84 118.014 647.88C227.524 525.666 397.836 319.479 544.201 166.146C668.132 36.3062 848.726 -23.0404 1025.48 8.22632L2703.59 305.106C2983.05 350.626 3172.52 442.56 3302.67 643.133C3366.23 723.906 3395.69 826.333 3385.25 928.586L3289.47 1866.64Z" fill="#E3EEFE"/>
<mask id="mask0_16_4" style="mask-type:luminance" maskUnits="userSpaceOnUse" x="12" y="0" width="3376" height="1867">
<path d="M3289.47 1866.64H56.7451L12.7824 943.546C7.61307 834.986 45.4851 728.84 118.014 647.88C227.524 525.666 397.836 319.479 544.201 166.146C668.132 36.3062 848.726 -23.0404 1025.48 8.22632L2703.59 305.106C2983.05 350.626 3172.52 442.56 3302.67 643.133C3366.23 723.906 3395.69 826.333 3385.25 928.586L3289.47 1866.64Z" fill="white"/>
</mask>
<g mask="url(#mask0_16_4)">
<path d="M1720.43 1866.64H56.7453L35 1410.04H378.749V967.386H957.097V1338.91H1720.43V1866.64Z" fill="#CCDFFE"/>
<path d="M1562.44 1866.23V945.653H1339.61V1582.11H1224.49V1866.64H1562.44" fill="#A4C4FF"/>
<path d="M3289.47 1866.64H2582.87V1186.12H2821.99V1425.85H3334.47L3289.47 1866.64Z" fill="#CCDFFE"/>
</g>
<path d="M1861.59 1649.29H1445.64V920.986H1861.59V1649.29Z" fill="#504F79"/>
<path d="M2038.6 1649.29H1861.59V920.986H2038.6V1649.29Z" fill="#38385D"/>
<path d="M1818.49 1046.92H1488.72V973.04H1818.49V1046.92Z" fill="#38385D"/>
<path d="M1760.37 1012.97C1760.89 982.853 1805.71 982.866 1806.21 1012.97C1805.71 1043.09 1760.89 1043.09 1760.37 1012.97Z" fill="#F85C3D"/>
<path d="M1697.51 1012.97C1698.01 982.853 1742.83 982.866 1743.33 1012.97C1742.83 1043.09 1698.01 1043.09 1697.51 1012.97Z" fill="#F85C3D"/>
<path d="M1555.67 1040.49H1541.33V981.8H1555.67V1040.49Z" fill="#504F79"/>
<path d="M1534.12 1040.49H1519.79V981.8H1534.12V1040.49Z" fill="#504F79"/>
<path d="M1512.57 1040.49H1498.24V981.8H1512.57V1040.49Z" fill="#504F79"/>
<path d="M1619.87 1040.49H1605.53V981.8H1619.87V1040.49Z" fill="#504F79"/>
<path d="M1598.32 1040.49H1583.99V981.8H1598.32V1040.49Z" fill="#504F79"/>
<path d="M1576.77 1040.49H1562.44V981.8H1576.77V1040.49Z" fill="#504F79"/>
<path d="M1684.08 1040.49H1669.73V981.8H1684.08V1040.49Z" fill="#504F79"/>
<path d="M1662.53 1040.49H1648.19V981.8H1662.53V1040.49Z" fill="#504F79"/>
<path d="M1640.99 1040.49H1626.64V981.8H1640.99V1040.49Z" fill="#504F79"/>
<path d="M1512.57 1040.49H1498.24V1003.36H1512.57V1040.49Z" fill="#EECD76"/>
<path d="M1534.12 1040.49H1519.79V1014.69H1534.12V1040.49Z" fill="#EECD76"/>
<path d="M1555.67 1040.49H1541.33V1009.97H1555.67V1040.49Z" fill="#EECD76"/>
<path d="M1577.21 1040.49H1562.88V1014.69H1577.21V1040.49Z" fill="#EECD76"/>
<path d="M1598.32 1040.49H1583.99V1014.69H1598.32V1040.49Z" fill="#EECD76"/>
<path d="M1619.87 1040.49H1605.53V999.12H1619.87V1040.49Z" fill="#EECD76"/>
<path d="M1640.99 1040.49H1626.64V1014.69H1640.99V1040.49Z" fill="#EECD76"/>
<path d="M1662.53 1040.49H1648.19V1014.69H1662.53V1040.49Z" fill="#EECD76"/>
<path d="M1684.08 1040.49H1669.73V1014.69H1684.08V1040.49Z" fill="#EECD76"/>
<path d="M1818.49 1156.17H1488.72V1082.29H1818.49V1156.17Z" fill="#38385D"/>
<path d="M1760.37 1122.23C1760.89 1092.11 1805.71 1092.12 1806.21 1122.23C1805.71 1152.35 1760.89 1152.35 1760.37 1122.23Z" fill="#F85C3D"/>
<path d="M1697.51 1122.23C1698.01 1092.11 1742.83 1092.12 1743.33 1122.23C1742.83 1152.35 1698.01 1152.35 1697.51 1122.23Z" fill="#F85C3D"/>
<path d="M1555.67 1149.75H1541.33V1091.05H1555.67V1149.75Z" fill="#504F79"/>
<path d="M1534.12 1149.75H1519.79V1091.05H1534.12V1149.75Z" fill="#504F79"/>
<path d="M1512.57 1149.75H1498.24V1091.05H1512.57V1149.75Z" fill="#504F79"/>
<path d="M1619.87 1149.75H1605.53V1091.05H1619.87V1149.75Z" fill="#504F79"/>
<path d="M1598.32 1149.75H1583.99V1091.05H1598.32V1149.75Z" fill="#504F79"/>
<path d="M1576.77 1149.75H1562.44V1091.05H1576.77V1149.75Z" fill="#504F79"/>
<path d="M1684.08 1149.75H1669.73V1091.05H1684.08V1149.75Z" fill="#504F79"/>
<path d="M1662.53 1149.75H1648.19V1091.05H1662.53V1149.75Z" fill="#504F79"/>
<path d="M1640.99 1149.75H1626.64V1091.05H1640.99V1149.75Z" fill="#504F79"/>
<path d="M1512.57 1149.75H1498.24V1139.11H1512.57V1149.75Z" fill="#EECD76"/>
<path d="M1534.12 1149.75H1519.79V1123.93H1534.12V1149.75Z" fill="#EECD76"/>
<path d="M1555.67 1149.75H1541.33V1119.23H1555.67V1149.75Z" fill="#EECD76"/>
<path d="M1576.77 1149.75H1562.44V1117.27H1576.77V1149.75Z" fill="#EECD76"/>
<path d="M1598.32 1149.75H1583.99V1123.93H1598.32V1149.75Z" fill="#EECD76"/>
<path d="M1619.87 1149.75H1605.53V1108.37H1619.87V1149.75Z" fill="#EECD76"/>
<path d="M1640.99 1149.75H1626.64V1123.93H1640.99V1149.75Z" fill="#EECD76"/>
<path d="M1662.53 1149.75H1648.19V1135.41H1662.53V1149.75Z" fill="#EECD76"/>
<path d="M1684.08 1149.75H1669.73V1123.93H1684.08V1149.75Z" fill="#EECD76"/>
<path d="M1818.49 1265.43H1488.72V1191.53H1818.49V1265.43Z" fill="#38385D"/>
<path d="M1760.37 1231.48C1760.89 1201.36 1805.71 1201.36 1806.21 1231.48C1805.71 1261.6 1760.89 1261.6 1760.37 1231.48Z" fill="#F85C3D"/>
<path d="M1697.51 1231.48C1698.01 1201.36 1742.83 1201.36 1743.33 1231.48C1742.83 1261.6 1698.01 1261.6 1697.51 1231.48Z" fill="#F85C3D"/>
<path d="M1555.67 1259H1541.33V1200.31H1555.67V1259Z" fill="#504F79"/>
<path d="M1534.12 1259H1519.79V1200.31H1534.12V1259Z" fill="#504F79"/>
<path d="M1512.57 1259H1498.24V1200.31H1512.57V1259Z" fill="#504F79"/>
<path d="M1619.87 1259H1605.53V1200.31H1619.87V1259Z" fill="#504F79"/>
<path d="M1598.32 1259H1583.99V1200.31H1598.32V1259Z" fill="#504F79"/>
<path d="M1576.77 1259H1562.44V1200.31H1576.77V1259Z" fill="#504F79"/>
<path d="M1684.08 1259H1669.73V1200.31H1684.08V1259Z" fill="#504F79"/>
<path d="M1662.53 1259H1648.19V1200.31H1662.53V1259Z" fill="#504F79"/>
<path d="M1640.99 1259H1626.64V1200.31H1640.99V1259Z" fill="#504F79"/>
<path d="M1512.57 1259H1498.24V1221.87H1512.57V1259Z" fill="#EECD76"/>
<path d="M1534.12 1259H1519.79V1233.19H1534.12V1259Z" fill="#EECD76"/>
<path d="M1555.67 1259H1541.33V1228.48H1555.67V1259Z" fill="#EECD76"/>
<path d="M1576.77 1259H1562.44V1209.04H1576.77V1259Z" fill="#504F79"/>
<path d="M1598.32 1259H1583.99V1233.19H1598.32V1259Z" fill="#EECD76"/>
<path d="M1619.87 1259H1605.53V1224.51H1619.87V1259Z" fill="#EECD76"/>
<path d="M1640.99 1259H1626.64V1233.19H1640.99V1259Z" fill="#EECD76"/>
<path d="M1662.53 1259H1648.19V1233.19H1662.53V1259Z" fill="#EECD76"/>
<path d="M1684.08 1259H1669.73V1233.19H1684.08V1259Z" fill="#EECD76"/>
<path d="M1818.49 1374.68H1488.72V1300.79H1818.49V1374.68Z" fill="#38385D"/>
<path d="M1760.37 1340.73C1760.89 1310.61 1805.71 1310.61 1806.21 1340.73C1805.71 1370.85 1760.89 1370.85 1760.37 1340.73Z" fill="#F85C3D"/>
<path d="M1697.51 1340.73C1698.01 1310.61 1742.83 1310.61 1743.33 1340.73C1742.83 1370.85 1698.01 1370.85 1697.51 1340.73Z" fill="#F85C3D"/>
<path d="M1555.67 1368.25H1541.33V1309.56H1555.67V1368.25Z" fill="#504F79"/>
<path d="M1534.12 1368.25H1519.79V1309.56H1534.12V1368.25Z" fill="#504F79"/>
<path d="M1512.57 1368.25H1498.24V1309.56H1512.57V1368.25Z" fill="#504F79"/>
<path d="M1619.87 1368.25H1605.53V1309.56H1619.87V1368.25Z" fill="#504F79"/>
<path d="M1598.32 1368.25H1583.99V1309.56H1598.32V1368.25Z" fill="#504F79"/>
<path d="M1576.77 1368.25H1562.44V1309.56H1576.77V1368.25Z" fill="#504F79"/>
<path d="M1684.08 1368.25H1669.73V1309.56H1684.08V1368.25Z" fill="#504F79"/>
<path d="M1662.53 1368.25H1648.19V1309.56H1662.53V1368.25Z" fill="#504F79"/>
<path d="M1640.99 1368.25H1626.64V1309.56H1640.99V1368.25Z" fill="#504F79"/>
<path d="M1512.57 1368.25H1498.24V1331.12H1512.57V1368.25Z" fill="#EECD76"/>
<path d="M1534.12 1368.25H1519.79V1355.35H1534.12V1368.25Z" fill="#EECD76"/>
<path d="M1555.67 1368.25H1541.33V1353.92H1555.67V1368.25Z" fill="#EECD76"/>
<path d="M1576.77 1368.25H1562.44V1342.44H1576.77V1368.25Z" fill="#EECD76"/>
<path d="M1598.32 1368.25H1583.99V1342.44H1598.32V1368.25Z" fill="#EECD76"/>
<path d="M1619.87 1368.25H1605.53V1326.88H1619.87V1368.25Z" fill="#EECD76"/>
<path d="M1640.99 1368.25H1626.64V1352.99H1640.99V1368.25Z" fill="#EECD76"/>
<path d="M1662.53 1368.25H1648.19V1342.44H1662.53V1368.25Z" fill="#EECD76"/>
<path d="M1684.08 1368.25H1669.73V1342.44H1684.08V1368.25Z" fill="#EECD76"/>
<path d="M1818.49 1483.93H1488.72V1410.04H1818.49V1483.93Z" fill="#38385D"/>
<path d="M1760.37 1449.99C1760.89 1419.87 1805.71 1419.87 1806.21 1449.99C1805.71 1480.11 1760.89 1480.11 1760.37 1449.99Z" fill="#F85C3D"/>
<path d="M1697.51 1449.99C1698.01 1419.87 1742.83 1419.87 1743.33 1449.99C1742.83 1480.11 1698.01 1480.11 1697.51 1449.99Z" fill="#504F79"/>
<path d="M1555.67 1477.51H1541.33V1418.81H1555.67V1477.51Z" fill="#504F79"/>
<path d="M1534.12 1477.51H1519.79V1418.81H1534.12V1477.51Z" fill="#504F79"/>
<path d="M1512.57 1477.51H1498.24V1418.81H1512.57V1477.51Z" fill="#504F79"/>
<path d="M1619.87 1477.51H1605.53V1418.81H1619.87V1477.51Z" fill="#504F79"/>
<path d="M1598.32 1477.51H1583.99V1418.81H1598.32V1477.51Z" fill="#504F79"/>
<path d="M1576.77 1477.51H1562.44V1418.81H1576.77V1477.51Z" fill="#504F79"/>
<path d="M1684.08 1477.51H1669.73V1418.81H1684.08V1477.51Z" fill="#504F79"/>
<path d="M1662.53 1477.51H1648.19V1418.81H1662.53V1477.51Z" fill="#504F79"/>
<path d="M1640.99 1477.51H1626.64V1418.81H1640.99V1477.51Z" fill="#504F79"/>
<path d="M1512.57 1477.51H1498.24V1440.37H1512.57V1477.51Z" fill="#EECD76"/>
<path d="M1534.12 1477.51H1519.79V1451.69H1534.12V1477.51Z" fill="#EECD76"/>
<path d="M1555.67 1477.51H1541.33V1446.99H1555.67V1477.51Z" fill="#EECD76"/>
<path d="M1577.21 1477.51H1562.88V1451.69H1577.21V1477.51Z" fill="#EECD76"/>
<path d="M1598.32 1477.51H1583.99V1451.69H1598.32V1477.51Z" fill="#EECD76"/>
<path d="M1619.87 1477.51H1605.53V1436.13H1619.87V1477.51Z" fill="#EECD76"/>
<path d="M1640.99 1477.51H1626.64V1451.69H1640.99V1477.51Z" fill="#EECD76"/>
<path d="M1662.53 1477.51H1648.19V1451.69H1662.53V1477.51Z" fill="#EECD76"/>
<path d="M1684.08 1477.51H1669.73V1451.69H1684.08V1477.51Z" fill="#EECD76"/>
<path d="M1580.25 1527.8H1488.72V1512.43H1580.25V1527.8Z" fill="#38385D"/>
<path d="M1580.25 1554.95H1488.72V1539.57H1580.25V1554.95Z" fill="#38385D"/>
<path d="M1580.25 1582.11H1488.72V1566.72H1580.25V1582.11Z" fill="#38385D"/>
<path d="M1699.37 1527.8H1607.84V1512.43H1699.37V1527.8Z" fill="#38385D"/>
<path d="M1699.37 1554.95H1607.84V1539.57H1699.37V1554.95Z" fill="#38385D"/>
<path d="M1699.37 1582.11H1607.84V1566.72H1699.37V1582.11Z" fill="#38385D"/>
<path d="M1818.49 1527.8H1726.96V1512.43H1818.49V1527.8Z" fill="#38385D"/>
<path d="M1818.49 1554.95H1726.96V1539.57H1818.49V1554.95Z" fill="#38385D"/>
<path d="M1818.49 1582.11H1726.96V1566.72H1818.49V1582.11Z" fill="#38385D"/>
<path d="M1995.85 988.466H1904.32V973.04H1995.85V988.466Z" fill="#504F79"/>
<path d="M1995.85 1015.72H1904.32V1000.28H1995.85V1015.72Z" fill="#504F79"/>
<path d="M1995.85 1042.97H1904.32V1027.53H1995.85V1042.97Z" fill="#504F79"/>
<path d="M1995.85 1098.71H1904.32V1083.28H1995.85V1098.71Z" fill="#504F79"/>
<path d="M1995.85 1125.96H1904.32V1110.52H1995.85V1125.96Z" fill="#504F79"/>
<path d="M1995.85 1153.21H1904.32V1137.77H1995.85V1153.21Z" fill="#504F79"/>
<path d="M1995.85 1208.95H1904.32V1193.52H1995.85V1208.95Z" fill="#504F79"/>
<path d="M1995.85 1236.2H1904.32V1220.76H1995.85V1236.2Z" fill="#504F79"/>
<path d="M1995.85 1263.45H1904.32V1248.01H1995.85V1263.45Z" fill="#504F79"/>
<path d="M1995.85 1318.2H1904.32V1302.77H1995.85V1318.2Z" fill="#504F79"/>
<path d="M1995.85 1345.45H1904.32V1330.01H1995.85V1345.45Z" fill="#504F79"/>
<path d="M1995.85 1372.71H1904.32V1357.27H1995.85V1372.71Z" fill="#504F79"/>
<path d="M1995.85 1425.85H1904.32V1410.41H1995.85V1425.85Z" fill="#504F79"/>
<path d="M1995.85 1453.11H1904.32V1437.67H1995.85V1453.11Z" fill="#504F79"/>
<path d="M1995.85 1480.35H1904.32V1464.92H1995.85V1480.35Z" fill="#504F79"/>
<path d="M2494.36 1649.29H2078.41V920.986H2494.36V1649.29Z" fill="#504F79"/>
<path d="M2671.39 1649.29H2494.36V920.986H2671.39V1649.29Z" fill="#38385D"/>
<path d="M2451.28 1046.92H2121.51V973.04H2451.28V1046.92Z" fill="#38385D"/>
<path d="M2393.16 1012.97C2393.68 982.853 2438.49 982.866 2439 1012.97C2438.48 1043.09 2393.67 1043.09 2393.16 1012.97Z" fill="#F85C3D"/>
<path d="M2330.28 1012.97C2330.8 982.853 2375.61 982.866 2376.12 1012.97C2375.61 1043.09 2330.8 1043.09 2330.28 1012.97Z" fill="#F85C3D"/>
<path d="M2188.45 1040.49H2174.11V981.8H2188.45V1040.49Z" fill="#504F79"/>
<path d="M2166.91 1040.49H2152.56V981.8H2166.91V1040.49Z" fill="#504F79"/>
<path d="M2145.36 1040.49H2131.01V981.8H2145.36V1040.49Z" fill="#504F79"/>
<path d="M2252.65 1040.49H2238.32V981.8H2252.65V1040.49Z" fill="#504F79"/>
<path d="M2231.11 1040.49H2216.77V981.8H2231.11V1040.49Z" fill="#504F79"/>
<path d="M2209.56 1040.49H2195.23V981.8H2209.56V1040.49Z" fill="#504F79"/>
<path d="M2316.85 1040.49H2302.52V981.8H2316.85V1040.49Z" fill="#504F79"/>
<path d="M2295.31 1040.49H2280.97V981.8H2295.31V1040.49Z" fill="#504F79"/>
<path d="M2273.76 1040.49H2259.43V981.8H2273.76V1040.49Z" fill="#504F79"/>
<path d="M2145.36 1040.49H2131.01V1003.36H2145.36V1040.49Z" fill="#EECD76"/>
<path d="M2166.91 1040.49H2152.56V1014.69H2166.91V1040.49Z" fill="#EECD76"/>
<path d="M2188.45 1040.49H2174.11V1009.97H2188.45V1040.49Z" fill="#EECD76"/>
<path d="M2210 1040.49H2195.65V1014.69H2210V1040.49Z" fill="#EECD76"/>
<path d="M2231.11 1040.49H2216.77V1014.69H2231.11V1040.49Z" fill="#EECD76"/>
<path d="M2252.65 1040.49H2238.32V999.12H2252.65V1040.49Z" fill="#EECD76"/>
<path d="M2273.76 1040.49H2259.43V1014.69H2273.76V1040.49Z" fill="#EECD76"/>
<path d="M2295.31 1040.49H2280.97V1014.69H2295.31V1040.49Z" fill="#EECD76"/>
<path d="M2316.85 1040.49H2302.52V1014.69H2316.85V1040.49Z" fill="#EECD76"/>
<path d="M2451.28 1156.17H2121.51V1082.29H2451.28V1156.17Z" fill="#38385D"/>
<path d="M2393.16 1122.23C2393.68 1092.11 2438.49 1092.12 2439 1122.23C2438.48 1152.35 2393.67 1152.35 2393.16 1122.23Z" fill="#F85C3D"/>
<path d="M2330.28 1122.23C2330.8 1092.11 2375.61 1092.12 2376.12 1122.23C2375.61 1152.35 2330.8 1152.35 2330.28 1122.23Z" fill="#F85C3D"/>
<path d="M2188.45 1149.75H2174.11V1091.05H2188.45V1149.75Z" fill="#504F79"/>
<path d="M2166.91 1149.75H2152.56V1091.05H2166.91V1149.75Z" fill="#504F79"/>
<path d="M2145.36 1149.75H2131.01V1091.05H2145.36V1149.75Z" fill="#504F79"/>
<path d="M2252.65 1149.75H2238.32V1091.05H2252.65V1149.75Z" fill="#504F79"/>
<path d="M2231.11 1149.75H2216.77V1091.05H2231.11V1149.75Z" fill="#504F79"/>
<path d="M2209.56 1149.75H2195.23V1091.05H2209.56V1149.75Z" fill="#504F79"/>
<path d="M2316.85 1149.75H2302.52V1091.05H2316.85V1149.75Z" fill="#504F79"/>
<path d="M2295.31 1149.75H2280.97V1091.05H2295.31V1149.75Z" fill="#504F79"/>
<path d="M2273.76 1149.75H2259.43V1091.05H2273.76V1149.75Z" fill="#504F79"/>
<path d="M2145.36 1149.75H2131.01V1139.11H2145.36V1149.75Z" fill="#EECD76"/>
<path d="M2166.91 1149.75H2152.56V1123.93H2166.91V1149.75Z" fill="#EECD76"/>
<path d="M2188.45 1149.75H2174.11V1119.23H2188.45V1149.75Z" fill="#EECD76"/>
<path d="M2209.56 1149.75H2195.23V1117.27H2209.56V1149.75Z" fill="#EECD76"/>
<path d="M2231.11 1149.75H2216.77V1123.93H2231.11V1149.75Z" fill="#EECD76"/>
<path d="M2252.65 1149.75H2238.32V1108.37H2252.65V1149.75Z" fill="#EECD76"/>
<path d="M2273.76 1149.75H2259.43V1123.93H2273.76V1149.75Z" fill="#EECD76"/>
<path d="M2295.31 1149.75H2280.97V1135.41H2295.31V1149.75Z" fill="#EECD76"/>
<path d="M2316.85 1149.75H2302.52V1123.93H2316.85V1149.75Z" fill="#EECD76"/>
<path d="M2451.28 1265.43H2121.51V1191.53H2451.28V1265.43Z" fill="#38385D"/>
<path d="M2393.16 1231.48C2393.68 1201.36 2438.49 1201.36 2439 1231.48C2438.48 1261.6 2393.67 1261.6 2393.16 1231.48Z" fill="#F85C3D"/>
<path d="M2330.28 1231.48C2330.8 1201.36 2375.61 1201.36 2376.12 1231.48C2375.61 1261.6 2330.8 1261.6 2330.28 1231.48Z" fill="#F85C3D"/>
<path d="M2188.45 1259H2174.11V1200.31H2188.45V1259Z" fill="#504F79"/>
<path d="M2166.91 1259H2152.56V1200.31H2166.91V1259Z" fill="#504F79"/>
<path d="M2145.36 1259H2131.01V1200.31H2145.36V1259Z" fill="#504F79"/>
<path d="M2252.65 1259H2238.32V1200.31H2252.65V1259Z" fill="#504F79"/>
<path d="M2231.11 1259H2216.77V1200.31H2231.11V1259Z" fill="#504F79"/>
<path d="M2209.56 1259H2195.23V1200.31H2209.56V1259Z" fill="#504F79"/>
<path d="M2316.85 1259H2302.52V1200.31H2316.85V1259Z" fill="#504F79"/>
<path d="M2295.31 1259H2280.97V1200.31H2295.31V1259Z" fill="#504F79"/>
<path d="M2273.76 1259H2259.43V1200.31H2273.76V1259Z" fill="#504F79"/>
<path d="M2145.36 1259H2131.01V1221.87H2145.36V1259Z" fill="#EECD76"/>
<path d="M2166.91 1259H2152.56V1233.19H2166.91V1259Z" fill="#EECD76"/>
<path d="M2188.45 1259H2174.11V1228.48H2188.45V1259Z" fill="#EECD76"/>
<path d="M2209.56 1259H2195.23V1209.04H2209.56V1259Z" fill="#504F79"/>
<path d="M2231.11 1259H2216.77V1233.19H2231.11V1259Z" fill="#EECD76"/>
<path d="M2252.65 1259H2238.32V1224.51H2252.65V1259Z" fill="#EECD76"/>
<path d="M2273.76 1259H2259.43V1233.19H2273.76V1259Z" fill="#EECD76"/>
<path d="M2295.31 1259H2280.97V1233.19H2295.31V1259Z" fill="#EECD76"/>
<path d="M2316.85 1259H2302.52V1233.19H2316.85V1259Z" fill="#EECD76"/>
<path d="M2451.28 1374.68H2121.51V1300.79H2451.28V1374.68Z" fill="#38385D"/>
<path d="M2393.16 1340.73C2393.68 1310.61 2438.49 1310.61 2439 1340.73C2438.48 1370.85 2393.67 1370.85 2393.16 1340.73Z" fill="#F85C3D"/>
<path d="M2330.28 1340.73C2330.8 1310.61 2375.61 1310.61 2376.12 1340.73C2375.61 1370.85 2330.8 1370.85 2330.28 1340.73Z" fill="#F85C3D"/>
<path d="M2188.45 1368.25H2174.11V1309.56H2188.45V1368.25Z" fill="#504F79"/>
<path d="M2166.91 1368.25H2152.56V1309.56H2166.91V1368.25Z" fill="#504F79"/>
<path d="M2145.36 1368.25H2131.01V1309.56H2145.36V1368.25Z" fill="#504F79"/>
<path d="M2252.65 1368.25H2238.32V1309.56H2252.65V1368.25Z" fill="#504F79"/>
<path d="M2231.11 1368.25H2216.77V1309.56H2231.11V1368.25Z" fill="#504F79"/>
<path d="M2209.56 1368.25H2195.23V1309.56H2209.56V1368.25Z" fill="#504F79"/>
<path d="M2316.85 1368.25H2302.52V1309.56H2316.85V1368.25Z" fill="#504F79"/>
<path d="M2295.31 1368.25H2280.97V1309.56H2295.31V1368.25Z" fill="#504F79"/>
<path d="M2273.76 1368.25H2259.43V1309.56H2273.76V1368.25Z" fill="#504F79"/>
<path d="M2145.36 1368.25H2131.01V1331.12H2145.36V1368.25Z" fill="#EECD76"/>
<path d="M2166.91 1368.25H2152.56V1355.35H2166.91V1368.25Z" fill="#EECD76"/>
<path d="M2188.45 1368.25H2174.11V1353.92H2188.45V1368.25Z" fill="#EECD76"/>
<path d="M2209.56 1368.25H2195.23V1342.44H2209.56V1368.25Z" fill="#EECD76"/>
<path d="M2231.11 1368.25H2216.77V1342.44H2231.11V1368.25Z" fill="#EECD76"/>
<path d="M2252.65 1368.25H2238.32V1326.88H2252.65V1368.25Z" fill="#EECD76"/>
<path d="M2273.76 1368.25H2259.43V1352.99H2273.76V1368.25Z" fill="#EECD76"/>
<path d="M2295.31 1368.25H2280.97V1342.44H2295.31V1368.25Z" fill="#EECD76"/>
<path d="M2316.85 1368.25H2302.52V1342.44H2316.85V1368.25Z" fill="#EECD76"/>
<path d="M2451.28 1483.93H2121.51V1410.04H2451.28V1483.93Z" fill="#38385D"/>
<path d="M2393.16 1449.99C2393.68 1419.87 2438.49 1419.87 2439 1449.99C2438.48 1480.11 2393.67 1480.11 2393.16 1449.99Z" fill="#F85C3D"/>
<path d="M2330.28 1449.99C2330.8 1419.87 2375.61 1419.87 2376.12 1449.99C2375.61 1480.11 2330.8 1480.11 2330.28 1449.99Z" fill="#504F79"/>
<path d="M2188.45 1477.51H2174.11V1418.81H2188.45V1477.51Z" fill="#504F79"/>
<path d="M2166.91 1477.51H2152.56V1418.81H2166.91V1477.51Z" fill="#504F79"/>
<path d="M2145.36 1477.51H2131.01V1418.81H2145.36V1477.51Z" fill="#504F79"/>
<path d="M2252.65 1477.51H2238.32V1418.81H2252.65V1477.51Z" fill="#504F79"/>
<path d="M2231.11 1477.51H2216.77V1418.81H2231.11V1477.51Z" fill="#504F79"/>
<path d="M2209.56 1477.51H2195.23V1418.81H2209.56V1477.51Z" fill="#504F79"/>
<path d="M2316.85 1477.51H2302.52V1418.81H2316.85V1477.51Z" fill="#504F79"/>
<path d="M2295.31 1477.51H2280.97V1418.81H2295.31V1477.51Z" fill="#504F79"/>
<path d="M2273.76 1477.51H2259.43V1418.81H2273.76V1477.51Z" fill="#504F79"/>
<path d="M2145.36 1477.51H2131.01V1440.37H2145.36V1477.51Z" fill="#EECD76"/>
<path d="M2166.91 1477.51H2152.56V1451.69H2166.91V1477.51Z" fill="#EECD76"/>
<path d="M2188.45 1477.51H2174.11V1446.99H2188.45V1477.51Z" fill="#EECD76"/>
<path d="M2210 1477.51H2195.65V1451.69H2210V1477.51Z" fill="#EECD76"/>
<path d="M2231.11 1477.51H2216.77V1451.69H2231.11V1477.51Z" fill="#EECD76"/>
<path d="M2252.65 1477.51H2238.32V1436.13H2252.65V1477.51Z" fill="#EECD76"/>
<path d="M2273.76 1477.51H2259.43V1451.69H2273.76V1477.51Z" fill="#EECD76"/>
<path d="M2295.31 1477.51H2280.97V1451.69H2295.31V1477.51Z" fill="#EECD76"/>
<path d="M2316.85 1477.51H2302.52V1451.69H2316.85V1477.51Z" fill="#EECD76"/>
<path d="M2213.04 1527.8H2121.51V1512.43H2213.04V1527.8Z" fill="#38385D"/>
<path d="M2213.04 1554.95H2121.51V1539.57H2213.04V1554.95Z" fill="#38385D"/>
<path d="M2213.04 1582.11H2121.51V1566.72H2213.04V1582.11Z" fill="#38385D"/>
<path d="M2332.16 1527.8H2240.63V1512.43H2332.16V1527.8Z" fill="#38385D"/>
<path d="M2332.16 1554.95H2240.63V1539.57H2332.16V1554.95Z" fill="#38385D"/>
<path d="M2332.16 1582.11H2240.63V1566.72H2332.16V1582.11Z" fill="#38385D"/>
<path d="M2451.28 1527.8H2359.75V1512.43H2451.28V1527.8Z" fill="#38385D"/>
<path d="M2451.28 1554.95H2359.75V1539.57H2451.28V1554.95Z" fill="#38385D"/>
<path d="M2451.28 1582.11H2359.75V1566.72H2451.28V1582.11Z" fill="#38385D"/>
<path d="M2628.64 988.466H2537.11V973.04H2628.64V988.466Z" fill="#504F79"/>
<path d="M2628.64 1015.72H2537.11V1000.28H2628.64V1015.72Z" fill="#504F79"/>
<path d="M2628.64 1042.97H2537.11V1027.53H2628.64V1042.97Z" fill="#504F79"/>
<path d="M2628.64 1098.71H2537.11V1083.28H2628.64V1098.71Z" fill="#504F79"/>
<path d="M2628.64 1125.96H2537.11V1110.52H2628.64V1125.96Z" fill="#504F79"/>
<path d="M2628.64 1153.21H2537.11V1137.77H2628.64V1153.21Z" fill="#504F79"/>
<path d="M2628.64 1208.95H2537.11V1193.52H2628.64V1208.95Z" fill="#504F79"/>
<path d="M2628.64 1236.2H2537.11V1220.76H2628.64V1236.2Z" fill="#504F79"/>
<path d="M2628.64 1263.45H2537.11V1248.01H2628.64V1263.45Z" fill="#504F79"/>
<path d="M2628.64 1318.2H2537.11V1302.77H2628.64V1318.2Z" fill="#504F79"/>
<path d="M2628.64 1345.45H2537.11V1330.01H2628.64V1345.45Z" fill="#504F79"/>
<path d="M2628.64 1372.71H2537.11V1357.27H2628.64V1372.71Z" fill="#504F79"/>
<path d="M2628.64 1425.85H2537.11V1410.41H2628.64V1425.85Z" fill="#504F79"/>
<path d="M2628.64 1453.11H2537.11V1437.67H2628.64V1453.11Z" fill="#504F79"/>
<path d="M2628.64 1480.35H2537.11V1464.92H2628.64V1480.35Z" fill="#504F79"/>
<path d="M2780.45 1866.23H1356.64V1649.29H2780.45V1866.23Z" fill="#504F79"/>
<path d="M2780.45 1866.23H2405.51V1649.29H2780.45V1866.23Z" fill="#38385D"/>
<path d="M2405.51 1650.95H1445.64V1647.64H2405.51V1650.95Z" fill="#38385D"/>
<path d="M2961.31 1308.72C2957.24 1334.04 2898.85 1561.43 2903.79 1581.31L2910.51 1796.61H2975.07L3006.19 1588.64C3003.88 1581.87 3095.63 1320.84 3098.56 1308.72H2961.31Z" fill="#38385D"/>
<path d="M3156.47 1308.72L3192.59 1796.61H3128.03L3004.53 1308.72H3156.47Z" fill="#38385D"/>
<path d="M3044.84 1468L3022.51 1379.73C3022.51 1379.73 2995.99 1503.24 3020.57 1539.96L3044.84 1468Z" fill="#1A1A35"/>
<path d="M2850.91 1021.69C2816.12 1026.39 2671.04 990.547 2635.04 983.08L2628.93 1015.04C2670.39 1031.19 2805.6 1087.99 2848.56 1090.35L2850.91 1021.69Z" fill="#FFB6A6"/>
<mask id="mask1_16_4" style="mask-type:luminance" maskUnits="userSpaceOnUse" x="2628" y="983" width="223" height="108">
<path d="M2850.91 1021.69C2816.12 1026.39 2671.04 990.547 2635.04 983.08L2628.93 1015.04C2670.39 1031.19 2805.6 1087.99 2848.56 1090.35L2850.91 1021.69Z" fill="white"/>
</mask>
<g mask="url(#mask1_16_4)">
<path d="M2840.37 1015.69L2820.48 1098.71L2867.24 1099.32L2871.72 1015.72L2840.37 1015.69Z" fill="#FF8370"/>
</g>
<path d="M3211.85 1119.01L3093.27 1027.48C3092.16 1026.57 3091.03 1025.72 3089.88 1024.87V1024.88C3072.03 1010.69 3046.89 1007.12 3023.92 1008.09C3004.09 1014.15 2874.36 1013.92 2851.19 1013.44L2847.99 1106.72L2938.17 1116.68L2957.48 1308.72H3162.36L3134.23 1161.65L3211.85 1119.01Z" fill="#F85C3D"/>
<mask id="mask2_16_4" style="mask-type:luminance" maskUnits="userSpaceOnUse" x="2847" y="1007" width="365" height="302">
<path d="M3211.85 1119.01L3093.27 1027.48C3092.16 1026.57 3091.03 1025.72 3089.88 1024.87V1024.88C3072.03 1010.69 3046.89 1007.12 3023.92 1008.09C3004.09 1014.15 2874.36 1013.92 2851.19 1013.44L2847.99 1106.72L2938.17 1116.68L2957.47 1308.72H3162.36L3134.23 1161.65L3211.85 1119.01Z" fill="white"/>
</mask>
<g mask="url(#mask2_16_4)">
<path d="M2964.92 1008.09C2982.69 1065.19 3070.85 1080.91 3093.88 1015.52L3033.43 1002.63L2964.92 1008.09Z" fill="#FFB6A6"/>
</g>
<mask id="mask3_16_4" style="mask-type:luminance" maskUnits="userSpaceOnUse" x="2847" y="1007" width="365" height="302">
<path d="M3211.85 1119.01L3093.27 1027.48C3092.16 1026.57 3091.03 1025.72 3089.88 1024.87V1024.88C3072.03 1010.69 3046.89 1007.12 3023.92 1008.09C3004.09 1014.15 2874.36 1013.92 2851.19 1013.44L2847.99 1106.72L2938.17 1116.68L2957.47 1308.72H3162.36L3134.23 1161.65L3211.85 1119.01Z" fill="white"/>
</mask>
<g mask="url(#mask3_16_4)">
<mask id="mask4_16_4" style="mask-type:luminance" maskUnits="userSpaceOnUse" x="2964" y="1002" width="130" height="57">
<path d="M2964.92 1008.09C2982.69 1065.19 3070.85 1080.91 3093.88 1015.52L3033.43 1002.63L2964.92 1008.09Z" fill="white"/>
</mask>
<g mask="url(#mask4_16_4)">
<path d="M2973.84 1008.09C2973.84 1008.09 2987.83 1056.03 3047 1060.11C3014.85 1067.05 2965.28 1049.28 2955.19 1009.4L2973.84 1008.09Z" fill="#FF8370"/>
</g>
</g>
<mask id="mask5_16_4" style="mask-type:luminance" maskUnits="userSpaceOnUse" x="2847" y="1007" width="365" height="302">
<path d="M3211.85 1119.01L3093.27 1027.48C3092.16 1026.57 3091.03 1025.72 3089.88 1024.87V1024.88C3072.03 1010.69 3046.89 1007.12 3023.92 1008.09C3004.09 1014.15 2874.36 1013.92 2851.19 1013.44L2847.99 1106.72L2938.17 1116.68L2957.47 1308.72H3162.36L3134.23 1161.65L3211.85 1119.01Z" fill="white"/>
</mask>
<g mask="url(#mask5_16_4)">
<path d="M2848.56 1090.35C2848.56 1090.35 2903.93 1101.47 2976.23 1090.35C3040.68 1245.69 2995.57 1220.71 3159.32 1271.27C3159.32 1271.27 3170.93 1317.69 3166.19 1316.11C3161.43 1314.53 2936.05 1315.05 2936.05 1315.05L2926.11 1120.39L2841.68 1105.61L2848.56 1090.35Z" fill="#DF4930"/>
</g>
<path d="M3206.52 1230.53H2996L3019.03 1103.15C3020 1097.81 3024.64 1093.93 3030.07 1093.93H3224.56C3228.03 1093.93 3230.64 1097.07 3230.03 1100.47L3206.52 1230.53Z" fill="#38385D"/>
<path d="M3200.67 1245C3197.95 1242.4 2872.95 1250.04 2873.55 1242.29C2874.36 1239.87 2871.49 1230.32 2876.25 1230.53H3206.52C3205.32 1233.88 3206.49 1245.39 3200.67 1245Z" fill="#504F79"/>
<path d="M3131.47 1170.85C3122.39 1196.91 3097.76 1188.43 3106.63 1162.32C3115.69 1136.27 3140.33 1144.73 3131.47 1170.85Z" fill="#504F79"/>
<path d="M2905.99 1375.81H2616.69C2607.23 1375.81 2599.53 1368.12 2599.53 1358.65V980.44C2609.81 967.6 2600.13 1359.27 2603.35 1358.65C2603.35 1366.01 2609.33 1372 2616.69 1372H2905.99C2913.35 1372 2919.33 1366.01 2919.33 1358.65V1238.84C2919.33 1237.79 2920.19 1236.93 2921.24 1236.93C2922.29 1236.93 2923.15 1237.79 2923.15 1238.84V1358.65C2923.15 1368.12 2915.45 1375.81 2905.99 1375.81Z" fill="#F85C3D"/>
<path d="M3129.69 1245.12C3148.28 1228.92 3148.29 1228.36 3177.09 1229.84C3185.16 1230.71 3171.43 1247.96 3167.93 1249.4C3163.93 1252.08 3158.79 1255 3155.59 1254.77C3149.73 1254.36 3113.11 1245.12 3114.73 1245.12C3116.36 1245.12 3129.69 1245.12 3129.69 1245.12Z" fill="#FFB6A6"/>
<path d="M2962.11 896.413L2940.8 961.72C2936.96 973.493 2944.71 985.88 2956.99 987.573L2990.8 992.24L2997.69 1038.37L3050.09 1035.27L3016.07 896.413H2962.11Z" fill="#FFB6A6"/>
<mask id="mask6_16_4" style="mask-type:luminance" maskUnits="userSpaceOnUse" x="2939" y="896" width="112" height="143">
<path d="M2962.11 896.413L2940.8 961.72C2936.96 973.493 2944.71 985.88 2956.99 987.573L2990.8 992.24L2997.69 1038.37L3050.09 1035.27L3016.07 896.413H2962.11Z" fill="white"/>
</mask>
<g mask="url(#mask6_16_4)">
<path d="M2939.81 977.786C2939.81 977.786 2966.23 984.64 2996.13 974.893C2996.13 974.893 2989.6 986.253 2991.44 995.36C2991.44 995.36 2943.96 994.2 2939.81 977.786Z" fill="#FF8370"/>
<path d="M2945.01 918.066C2946.12 918.6 2966.44 939.653 3020.77 922.653L2958.68 889.4L2945.01 918.066Z" fill="#FF8370"/>
</g>
<path d="M2926.25 1796.61V1817.43C2926.25 1817.43 2932.88 1837.81 2947.63 1837.81C2962.36 1837.81 2962.97 1833.27 2962.97 1833.27L2966.32 1796.61H2926.25Z" fill="#FFB6A6"/>
<mask id="mask7_16_4" style="mask-type:luminance" maskUnits="userSpaceOnUse" x="2926" y="1796" width="41" height="42">
<path d="M2926.25 1796.61V1817.43C2926.25 1817.43 2932.88 1837.81 2947.63 1837.81C2962.36 1837.81 2962.97 1833.27 2962.97 1833.27L2966.32 1796.61H2926.25Z" fill="white"/>
</mask>
<g mask="url(#mask7_16_4)">
<path d="M2968.93 1815.67C2968.93 1815.67 2931.72 1810.59 2921.83 1801.4L2921.36 1792.59L2969.63 1793.64L2968.93 1815.67Z" fill="#FF8370"/>
</g>
<path d="M2962.97 1833.27C2962.97 1833.27 2932.39 1841.11 2926.04 1815.67L2866.12 1844.08C2857.53 1848.16 2852.43 1857.17 2853.35 1866.64L2958.23 1865.23C2973.07 1864.85 2962.96 1841.16 2962.97 1833.27Z" fill="#38385C"/>
<path d="M3138.75 1796.61C3145.36 1806.56 3151.79 1837.68 3170.15 1837.81C3184.89 1837.81 3185.51 1833.27 3185.51 1833.27L3178.8 1796.61H3138.75Z" fill="#FFB6A6"/>
<mask id="mask8_16_4" style="mask-type:luminance" maskUnits="userSpaceOnUse" x="3138" y="1796" width="48" height="42">
<path d="M3138.75 1796.61C3145.36 1806.56 3151.79 1837.68 3170.15 1837.81C3184.89 1837.81 3185.51 1833.27 3185.51 1833.27L3178.8 1796.61H3138.75Z" fill="white"/>
</mask>
<g mask="url(#mask8_16_4)">
<path d="M3182.87 1815.67C3182.87 1815.67 3145.65 1810.59 3135.76 1801.4L3135.29 1792.59L3183.56 1793.64L3182.87 1815.67Z" fill="#FF8370"/>
</g>
<path d="M3185.51 1833.27C3185.51 1833.27 3154.92 1841.11 3148.57 1815.67L3088.65 1844.08C3080.07 1848.16 3074.95 1857.17 3075.88 1866.64L3180.75 1865.23C3195.6 1864.85 3185.49 1841.16 3185.51 1833.27Z" fill="#38385C"/>
<path d="M2640.07 984.187C2634.13 980.6 2621.52 962.813 2613.11 967.16C2612.84 968.227 2572.95 981.093 2576.51 983.733C2578.25 987.253 2581.93 989.627 2585.92 988.733L2609.03 983.947L2613.65 1012.81L2633.45 1015.69L2640.07 984.187Z" fill="#FFB6A6"/>
<path d="M2585.33 985.36L2596.76 1015.69L2615.44 1012.07L2609.96 980.44L2585.33 985.36Z" fill="#FF8370"/>
<path d="M2961.8 903.266C2961.8 903.266 3002.05 917.213 3002.93 917.213C3000.43 925.893 2993.75 939.626 3005.43 948.32L3010.93 934.64C3010.93 934.64 3028 952.413 3010.93 961.293L3036.65 983.08C3056.96 958.413 3051.88 937.226 3049.96 908.146C3049.21 888.773 3031.11 877.693 3014.33 872.693L2949.87 853.04C2949.87 853.04 2928.83 895.72 2961.8 903.266Z" fill="#38385D"/>
<path d="M2004.45 1119.95C1963.63 1128.57 1926.55 1084.52 1942.19 1045.77L2096.35 622.08C2109.29 582.413 2165.97 572.333 2191.73 605.253L2481.64 950.586C2509.52 981.626 2489.91 1035.75 2448.52 1041.59L2004.45 1119.95Z" fill="#739BFD"/>
<path d="M2123.61 632C1925.87 1228.53 1823.03 1103.68 2443.48 1013.03C2463.88 1009.43 2472.72 985.093 2459.41 969.24L2169.51 623.906C2156.19 608.04 2130.69 612.546 2123.61 632Z" fill="#A4C4FF"/>
<path d="M2119.4 746.906L2212.81 730.426L2234.17 918.24L2164.45 930.546L2119.4 746.906ZM2180.87 960.52C2206.84 923.546 2262.76 962.48 2237.41 999.546C2210.71 1035.76 2155.75 998.546 2180.87 960.52Z" fill="white"/>
<path d="M2387.17 492.84H1917.96C1930.69 465.813 1955.03 451.093 1984.89 451.907C1995.51 361.773 2121.49 340.213 2161.52 421.627C2190.04 409.04 2227.68 426.227 2236.83 456.027C2283.29 401.827 2368.48 425.227 2387.17 492.84Z" fill="white"/>
<path d="M1850.76 350.507H1536.07C1535.75 323.134 1564.64 311.44 1588.2 310.707C1592.45 310.387 1596.97 310.12 1600.41 307.613C1646.41 221.88 1773.97 235.013 1793.97 332.547C1802.89 320.12 1819.97 314.24 1834.64 318.56C1849.31 322.867 1849.99 335.24 1850.76 350.507Z" fill="white"/>
<path d="M2665.27 687.187C2663.04 817.547 2469.11 817.52 2466.89 687.173C2469.12 556.813 2663.07 556.84 2665.27 687.187Z" fill="#A4C4FF"/>
<path d="M2505.45 713.853H2533.55V670.346L2505.45 713.853ZM2596.05 713.853H2619.57L2596.05 671.253V713.853ZM2594.2 776.6C2593.19 776.6 2592.36 775.773 2592.36 774.746V717.546H2537.24V774.746C2537.24 775.773 2536.41 776.6 2535.39 776.6C2534.37 776.6 2533.55 775.773 2533.55 774.746V717.546H2502.07C2500.64 717.586 2499.69 715.866 2500.51 714.693L2533.84 663.066C2534.75 661.546 2537.31 662.266 2537.24 664.066V713.853H2592.36V664.066C2592.31 662.226 2594.97 661.506 2595.83 663.173L2624.32 714.8C2624.64 715.373 2624.63 716.08 2624.29 716.64C2624.83 718.546 2596.75 717.133 2596.05 717.546V774.746C2596.05 775.773 2595.23 776.6 2594.2 776.6Z" fill="#E3EEFE"/>
<path d="M2587.03 833.413C2526.69 833.48 2519.72 840.573 2522.33 774.44H2609.84C2608.6 794.053 2617.69 832.88 2587.03 833.413Z" fill="#38385D"/>
<path d="M2609.84 790.893H2522.33V782.68H2609.84V790.893Z" fill="#504F79"/>
<path d="M2609.84 805.187H2522.33V796.96H2609.84V805.187Z" fill="#504F79"/>
<path d="M2528.01 581.787L2521.73 564.387C2524.27 563.48 2526.85 562.626 2529.43 561.88L2534.61 579.627C2532.4 580.28 2530.19 581 2528.01 581.787ZM2606.25 582.573C2604.09 581.746 2601.89 580.973 2599.68 580.28L2605.23 562.64C2607.8 563.44 2610.37 564.346 2612.89 565.306L2606.25 582.573ZM2487.25 607.573L2474.24 594.427C2476.15 592.547 2478.13 590.693 2480.16 588.92L2492.35 602.84C2490.6 604.36 2488.89 605.946 2487.25 607.573ZM2646.52 609.2C2644.91 607.546 2643.24 605.92 2641.53 604.36L2653.99 590.693C2655.97 592.507 2657.93 594.4 2659.8 596.32L2646.52 609.2ZM2461.04 648.12L2443.71 641.666C2444.64 639.133 2445.68 636.613 2446.77 634.16L2463.67 641.68C2462.73 643.786 2461.84 645.947 2461.04 648.12ZM2671.88 650.213C2671.12 648.053 2670.28 645.866 2669.39 643.746L2686.44 636.573C2687.48 639.04 2688.45 641.587 2689.35 644.12L2671.88 650.213ZM2435.93 697.346C2435.72 694.666 2435.6 691.946 2435.56 689.266L2454.05 688.973C2454.09 691.28 2454.2 693.627 2454.37 695.92L2435.93 697.346ZM2696 699.933L2677.59 698.146C2677.81 695.853 2677.97 693.52 2678.05 691.213L2696.53 691.853C2696.44 694.547 2696.27 697.266 2696 699.933ZM2452.28 751.16C2450.96 748.813 2449.69 746.4 2448.52 743.987L2465.17 735.92C2466.17 738 2467.25 740.066 2468.39 742.08L2452.28 751.16ZM2678.59 753.413L2662.65 744.013C2663.83 742.026 2664.95 739.986 2666 737.933L2682.48 746.32C2681.27 748.707 2679.95 751.106 2678.59 753.413Z" fill="#A4C4FF"/>
<path d="M762.281 1095.24L632.423 1038.49L632.421 1038.51C621.129 1033.2 608.556 1030.23 595.343 1030.23C554.956 1027.43 510.209 1032.53 488.012 1069.79L400.664 1182.61L467.627 1230.21L460.939 1352.55H697.7L686.111 1171.53L728.735 1187.31L762.281 1095.24Z" fill="#F85C3D"/>
<mask id="mask9_16_4" style="mask-type:luminance" maskUnits="userSpaceOnUse" x="400" y="1029" width="363" height="324">
<path d="M762.281 1095.24L632.423 1038.49L632.421 1038.51C621.129 1033.2 608.556 1030.23 595.343 1030.23C554.957 1027.43 510.209 1032.53 488.013 1069.79L400.664 1182.61L467.627 1230.21L460.939 1352.55H697.7L686.112 1171.53L728.735 1187.31L762.281 1095.24Z" fill="white"/>
</mask>
<g mask="url(#mask9_16_4)">
<path d="M514.004 1034.75C541.552 1062.76 613.227 1081.13 641.076 1032.33L585.879 1018.75L548.339 1021.11L514.004 1034.75Z" fill="#FFB6A6"/>
<path d="M744.913 1170.16L663.374 1108.72L620.285 1350.41L723.7 1346.21L702.156 1197.91L744.913 1214.28V1170.16Z" fill="#DF4930"/>
<path d="M439.539 1217.47L499.189 1102.97C499.189 1102.97 507.179 1362.84 505.58 1362.84C503.983 1362.84 444.332 1359.64 444.332 1359.64L439.539 1217.47Z" fill="#DF4930"/>
</g>
<path d="M742.493 1543.13L672.892 1352.45L680.596 1352.44L652.271 1037.79L627.405 1032.33L627.805 1134.13L530.833 1130.93L526.216 1033.43L501.223 1040.11L477.255 1352.55L334.973 1583.92L254.044 1800.76H327.803L438.295 1633.04L581.561 1476.92L623.272 1556.77L573.911 1800.76H659.041C660.731 1785.81 759.107 1551.77 742.493 1543.13Z" fill="#38385C"/>
<mask id="mask10_16_4" style="mask-type:luminance" maskUnits="userSpaceOnUse" x="254" y="1032" width="491" height="769">
<path d="M742.493 1543.13L672.892 1352.45L680.595 1352.44L652.269 1037.79L627.405 1032.33L627.805 1134.12L530.833 1130.93L526.216 1033.43L501.223 1040.11L477.255 1352.55L334.973 1583.92L254.044 1800.76H327.803L438.296 1633.04L581.561 1476.92L623.271 1556.77L573.911 1800.76H659.041C660.731 1785.81 759.107 1551.77 742.493 1543.13Z" fill="white"/>
</mask>
<g mask="url(#mask10_16_4)">
<path d="M477.255 1352.55C477.255 1352.55 545.377 1488.59 725.297 1480.69L697.7 1352.55L470.728 1306.72L477.255 1352.55Z" fill="#1A1A35"/>
<path d="M523.729 1153.05C523.928 1166.75 502.423 1166.75 502.624 1153.05C502.424 1139.37 523.931 1139.37 523.729 1153.05Z" fill="#1A1A35"/>
<path d="M644.983 1154.71C645.181 1168.4 623.676 1168.4 623.877 1154.71C623.677 1141.01 645.184 1141.01 644.983 1154.71Z" fill="#1A1A35"/>
<path d="M500.93 1279.01L648.297 1287.8L639.958 1192.65L512.243 1190.11L500.93 1279.01ZM651.124 1290.55C649.43 1290.44 499.744 1281.52 498.027 1281.41L509.981 1187.48L642.322 1190.12L651.124 1290.55Z" fill="#1A1A35"/>
</g>
<path d="M1182.89 986.666L600.997 786.6C562.684 773.426 542.306 731.693 555.482 693.387L748.845 131.2C762.02 92.8931 803.758 72.5198 842.07 85.6932L1423.97 285.773C1462.28 298.946 1482.67 340.666 1469.49 378.973L1276.12 941.16C1262.95 979.467 1221.21 999.84 1182.89 986.666Z" fill="#3875FF"/>
<mask id="mask11_16_4" style="mask-type:luminance" maskUnits="userSpaceOnUse" x="551" y="81" width="923" height="910">
<path d="M1182.89 986.666L600.997 786.6C562.684 773.426 542.306 731.693 555.482 693.387L748.845 131.2C762.02 92.8931 803.758 72.5198 842.07 85.6932L1423.97 285.773C1462.28 298.946 1482.67 340.666 1469.49 378.973L1276.12 941.16C1262.95 979.467 1221.21 999.84 1182.89 986.666Z" fill="white"/>
</mask>
<g mask="url(#mask11_16_4)">
<path d="M1238.96 1023.04L657.061 822.96C618.749 809.787 598.371 768.053 611.546 729.747L804.909 167.56C818.083 129.253 859.822 108.88 898.134 122.054L1480.04 322.133C1518.35 335.307 1538.73 377.04 1525.55 415.347L1332.19 977.533C1319.01 1015.84 1277.28 1036.21 1238.96 1023.04Z" fill="#A4C4FF"/>
</g>
<path d="M1307.37 755.587C1372.6 468 1365.27 497.826 1086.6 492.84L1063.4 560.32L1273.68 765.92C1285.04 777.027 1304.2 771.16 1307.37 755.587ZM1096.53 596.72L1029.04 573.52L823.401 783.76C812.29 795.12 818.166 814.28 833.737 817.453C1121.19 882.6 1091.6 875.507 1096.53 596.72ZM1015.84 539.16L805.558 333.56C794.196 322.453 775.042 328.32 771.865 343.893C706.705 631.293 713.802 601.706 992.636 606.64L1015.84 539.16ZM982.713 502.76L1050.2 525.973L1255.84 315.72C1266.95 304.36 1261.08 285.2 1245.51 282.026C958.048 216.88 987.644 223.973 982.713 502.76Z" fill="#739BFD"/>
<mask id="mask12_16_4" style="mask-type:luminance" maskUnits="userSpaceOnUse" x="738" y="248" width="604" height="604">
<path d="M1307.37 755.587C1372.6 468 1365.27 497.826 1086.6 492.84L1063.4 560.32L1273.68 765.92C1285.04 777.027 1304.2 771.16 1307.37 755.587ZM1096.53 596.72L1029.04 573.52L823.401 783.76C812.29 795.12 818.166 814.28 833.737 817.453C1121.19 882.6 1091.6 875.507 1096.53 596.72ZM1015.84 539.16L805.558 333.56C794.196 322.453 775.042 328.32 771.865 343.893C706.705 631.293 713.802 601.706 992.636 606.64L1015.84 539.16ZM982.713 502.76L1050.2 525.973L1255.84 315.72C1266.95 304.36 1261.08 285.2 1245.51 282.026C958.048 216.88 987.644 223.973 982.713 502.76Z" fill="white"/>
</mask>
<g mask="url(#mask12_16_4)">
<mask id="mask13_16_4" style="mask-type:luminance" maskUnits="userSpaceOnUse" x="974" y="573" width="123" height="93">
<path d="M1060.72 665.586C1028.8 665.586 996.704 652.173 974.853 628.92L1029.04 573.52L1096.53 596.72C1096.12 619.52 1095.95 640.52 1095.81 659.8C1084.51 663.72 1072.63 665.586 1060.72 665.586Z" fill="white"/>
</mask>
<g mask="url(#mask13_16_4)">
<path d="M974.853 665.586H1096.53V573.518H974.853V665.586Z" fill="#5386FE"/>
</g>
</g>
<mask id="mask14_16_4" style="mask-type:luminance" maskUnits="userSpaceOnUse" x="738" y="248" width="604" height="604">
<path d="M1307.37 755.587C1372.6 468 1365.27 497.826 1086.6 492.84L1063.4 560.32L1273.68 765.92C1285.04 777.027 1304.2 771.16 1307.37 755.587ZM1096.53 596.72L1029.04 573.52L823.401 783.76C812.29 795.12 818.166 814.28 833.737 817.453C1121.19 882.6 1091.6 875.507 1096.53 596.72ZM1015.84 539.16L805.558 333.56C794.196 322.453 775.042 328.32 771.865 343.893C706.705 631.293 713.802 601.706 992.636 606.64L1015.84 539.16ZM982.713 502.76L1050.2 525.973L1255.84 315.72C1266.95 304.36 1261.08 285.2 1245.51 282.026C958.048 216.88 987.644 223.973 982.713 502.76Z" fill="white"/>
</mask>
<g mask="url(#mask14_16_4)">
<path d="M1137.12 632.4L1063.4 560.32L1086.6 492.84C1108.01 493.227 1127.84 493.4 1146.13 493.533C1165.31 518.56 1173.39 552.76 1160.4 592.707C1154.57 608.747 1146.59 621.893 1137.12 632.4Z" fill="#5386FE"/>
<path d="M992.636 606.64C980.808 606.426 969.48 606.28 958.615 606.173C946.537 583.066 943.081 554.266 953.692 521.626C957.66 510.693 962.639 501.093 968.4 492.773L1015.84 539.16L992.636 606.64Z" fill="#5386FE"/>
<path d="M1050.2 525.973L982.713 502.76C982.878 493.44 983.005 484.427 983.105 475.693C1002.98 457.147 1028.12 448.746 1053.36 448.746C1073.4 448.746 1093.49 454.026 1111.09 463.706L1050.2 525.973Z" fill="#5386FE"/>
</g>
<path d="M1125.87 579.387C1084.95 692.08 916.32 634.08 953.381 520.08C994.3 407.413 1162.92 465.4 1125.87 579.387Z" fill="#3875FF"/>
<path d="M764.144 1350.67L677.901 1321.01L834.143 866.76L920.385 896.413L764.144 1350.67Z" fill="#3875FF"/>
<path d="M905.218 1472.8L490.497 1330.2C503.104 1302.77 508.137 1234.45 554.186 1249.44L904.684 1369.95C950.229 1386.57 912.158 1443.33 905.218 1472.8Z" fill="#739BFD"/>
<path d="M619.536 1374.57C619.536 1374.57 638.618 1366.88 638.618 1364.51C638.618 1362.13 597.416 1361.39 597.416 1361.39C559.9 1323 452.48 1209.87 405.6 1186.12L393.076 1204.59C375.5 1229.4 383.404 1266.73 409.541 1282.28C432.973 1295.24 582.286 1395.49 606.716 1397.43C614.521 1399.45 655.369 1386.89 655.369 1386.89L619.536 1374.57Z" fill="#FFB6A6"/>
<mask id="mask15_16_4" style="mask-type:luminance" maskUnits="userSpaceOnUse" x="383" y="1186" width="273" height="212">
<path d="M619.536 1374.57C619.536 1374.57 638.618 1366.88 638.618 1364.51C638.618 1362.13 597.416 1361.39 597.416 1361.39C559.9 1323 452.48 1209.87 405.598 1186.12L393.076 1204.59C375.5 1229.4 383.404 1266.73 409.54 1282.28C432.974 1295.24 582.286 1395.49 606.716 1397.43C614.521 1399.45 655.369 1386.89 655.369 1386.89L619.536 1374.57Z" fill="white"/>
</mask>
<g mask="url(#mask15_16_4)">
<path d="M371.609 1209.72C371.609 1209.72 432.958 1245.76 478.629 1233.19L400.664 1166.11L371.609 1209.72Z" fill="#FF8370"/>
</g>
<path d="M850.308 1147.88L836.829 1139.35L719.38 1271.23C719.38 1271.23 679.829 1286.69 684.385 1287.8C688.94 1288.92 701.7 1291.88 701.7 1291.88L693.909 1301.52L672.241 1311.68C670.096 1312.69 670.28 1315.8 672.529 1316.55L698.916 1325.29C706.782 1327.91 715.329 1327.57 722.973 1324.37C733.898 1320.92 745.597 1302.08 752.919 1294.03L852.821 1220.59C877.513 1203.45 876.194 1163.27 850.308 1147.88Z" fill="#FFB6A6"/>
<path d="M631.522 916.72C631.522 916.72 649.623 960.72 616.136 995.2L611.528 916.72H631.522Z" fill="#38385C"/>
<path d="M631.604 937.493C629.861 937.493 628.248 938.826 626.917 941.08C616.435 875.426 537.379 875.467 526.92 941.093C519.659 930.84 514.017 944.467 514.004 957.52C513.808 971.667 521.005 985.453 527.801 972.2C531.897 989.693 541.892 1004.08 554.949 1011.8V1040.11H599.723V1011.28C612.365 1003.45 622.027 989.333 626.039 972.227C640.087 994.96 645.177 937.253 631.604 937.493Z" fill="#FFB6A6"/>
<mask id="mask16_16_4" style="mask-type:luminance" maskUnits="userSpaceOnUse" x="513" y="891" width="127" height="150">
<path d="M631.604 937.493C629.862 937.493 628.247 938.826 626.918 941.08C616.435 875.426 537.379 875.467 526.92 941.093C519.659 930.84 514.019 944.467 514.003 957.52C513.808 971.667 521.004 985.453 527.802 972.2C531.898 989.693 541.892 1004.08 554.95 1011.8V1040.11H599.723V1011.28C612.364 1003.45 622.027 989.333 626.039 972.227C634.204 985.44 639.343 971.48 639.55 957.506C639.699 947.453 637.288 937.387 631.604 937.493Z" fill="white"/>
</mask>
<g mask="url(#mask16_16_4)">
<path d="M530.392 950.253L565.767 918.6C565.767 918.6 574.505 929.64 609.691 933.787L604.401 928.04C604.401 928.04 612.12 932.36 628.268 925.253L587.843 898.373L549.208 899.52L530.392 950.253Z" fill="#FF8370"/>
<path d="M554.95 1011.8C554.95 1011.8 579.19 1018.55 599.723 1011.28C599.723 1011.28 576.144 1027.19 550.938 1027.19L554.95 1011.8Z" fill="#FF8370"/>
</g>
<path d="M530.392 950.253C537.181 940.707 553.701 917.787 563.872 906.067C563.872 906.067 578.8 923.4 607.125 926.013L589.447 910.747C589.447 910.747 616.768 928.627 641.076 925.2C632.956 857.773 508.068 847.147 518.169 940.107C520.705 942.56 525.236 956.493 530.392 950.253Z" fill="#38385C"/>
<path d="M564.253 990.586C564.253 990.586 582.625 974.8 591.836 978.426C601.046 982.053 564.253 990.586 564.253 990.586Z" fill="white"/>
<path d="M276.111 1800.76L270.387 1817.43C270.387 1817.43 277.012 1837.81 291.753 1837.81C306.496 1837.81 307.108 1833.27 307.108 1833.27L320.699 1800.76H276.111Z" fill="#FFB6A6"/>
<mask id="mask17_16_4" style="mask-type:luminance" maskUnits="userSpaceOnUse" x="270" y="1800" width="51" height="38">
<path d="M276.11 1800.76L270.388 1817.43C270.388 1817.43 277.012 1837.81 291.753 1837.81C306.496 1837.81 307.108 1833.27 307.108 1833.27L320.698 1800.76H276.11Z" fill="white"/>
</mask>
<g mask="url(#mask17_16_4)">
<path d="M320.698 1817.97C320.698 1817.97 275.848 1810.59 265.958 1801.4L265.488 1792.59L329.569 1798.08L320.698 1817.97Z" fill="#FF8370"/>
</g>
<path d="M307.108 1833.27C307.108 1833.27 276.515 1841.11 270.171 1815.67L210.252 1844.08C201.663 1848.16 196.552 1857.17 197.476 1866.64L302.352 1865.23C317.196 1864.85 307.092 1841.16 307.108 1833.27Z" fill="#38385C"/>
<path d="M626.317 1800.76C620.665 1810.63 618.552 1835.6 598.231 1837.81C583.488 1837.81 582.876 1833.27 582.876 1833.27L587.381 1800.76H626.317Z" fill="#FFB6A6"/>
<mask id="mask18_16_4" style="mask-type:luminance" maskUnits="userSpaceOnUse" x="582" y="1800" width="45" height="38">
<path d="M626.317 1800.76C620.665 1810.63 618.552 1835.6 598.231 1837.81C583.488 1837.81 582.876 1833.27 582.876 1833.27L587.381 1800.76H626.317Z" fill="white"/>
</mask>
<g mask="url(#mask18_16_4)">
<path d="M569.284 1817.97C569.284 1817.97 619.764 1809.95 629.653 1800.76L624.496 1792.59L560.415 1798.08L569.284 1817.97Z" fill="#FF8370"/>
</g>
<path d="M582.876 1833.27C582.876 1833.27 613.468 1841.11 619.812 1815.67L679.731 1844.08C688.32 1848.16 693.431 1857.17 692.508 1866.64L587.632 1865.23C572.785 1864.85 582.892 1841.16 582.876 1833.27Z" fill="#38385C"/>
<path d="M1640.99 883.053H1630.68C1630.13 852.72 1655.69 852.493 1656.43 825C1655.69 797.52 1630.13 797.28 1630.68 766.96C1630.13 736.627 1655.69 736.4 1656.43 708.906C1655.69 681.426 1630.13 681.187 1630.68 650.853C1630.13 620.533 1655.69 620.293 1656.43 592.8H1666.73C1667.28 623.147 1641.72 623.36 1640.97 650.853C1641.72 678.347 1667.28 678.586 1666.73 708.906C1667.28 739.24 1641.72 739.467 1640.97 766.96C1641.72 794.44 1667.28 794.68 1666.73 825C1667.28 855.32 1641.72 855.573 1640.99 883.053Z" fill="white"/>
<path d="M1712.69 883.053H1702.4C1701.84 852.72 1727.41 852.493 1728.15 825C1727.41 797.52 1701.84 797.28 1702.4 766.96C1701.84 736.627 1727.41 736.4 1728.15 708.906C1727.41 681.426 1701.84 681.187 1702.4 650.853C1701.84 620.533 1727.41 620.293 1728.15 592.8H1738.45C1739 623.147 1713.44 623.36 1712.69 650.853C1713.44 678.347 1739 678.586 1738.44 708.906C1739 739.24 1713.44 739.467 1712.69 766.96C1713.44 794.44 1739 794.68 1738.44 825C1739 855.32 1713.44 855.573 1712.69 883.053Z" fill="white"/>
<path d="M1784.41 883.053H1774.11C1773.56 852.72 1799.12 852.493 1799.87 825C1799.12 797.52 1773.56 797.28 1774.11 766.96C1773.56 736.627 1799.12 736.4 1799.87 708.906C1799.12 681.426 1773.56 681.187 1774.11 650.853C1773.56 620.533 1799.12 620.293 1799.87 592.8H1810.16C1810.71 623.147 1785.15 623.36 1784.41 650.853C1785.15 678.347 1810.72 678.587 1810.16 708.906C1810.71 739.24 1785.15 739.467 1784.41 766.96C1785.15 794.44 1810.72 794.68 1810.16 825C1810.71 855.32 1785.15 855.573 1784.41 883.053Z" fill="white"/>
<path d="M3344.81 1872.35C3338.67 1866.24 -1.23744 1884.05 0.0932262 1866.24C-8.17611 1860.07 3382.51 1843.49 3344.81 1872.35Z" fill="#38385C"/>
</svg>
